<svg width="378" height="374" viewBox="0 0 378 374" fill="none" xmlns="http://www.w3.org/2000/svg">
<path d="M16.8468 210.082C16.5549 206.371 16.3297 202.655 16.1504 198.948" stroke="black" stroke-width="2" stroke-miterlimit="10"/>
<path d="M227.907 343.577H121.98" stroke="#CCDDE2" stroke-width="2" stroke-miterlimit="10"/>
<path d="M258.832 78.2175C258.832 78.2175 290.049 63.4766 316.532 92.2371C325.185 101.636 331.09 114.109 331.507 126.977C331.696 133.257 330.684 139.514 328.525 145.413C326.328 151.434 322.383 155.421 319.351 160.784C314.702 169.053 324.422 170.516 329.639 174.524C333.106 177.21 336.394 180.118 339.484 183.231C346.447 190.185 352.574 197.928 357.74 206.303C367.971 222.986 374.13 241.843 375.721 261.347C377.293 280.579 376.088 301.463 366.226 318.547C361.481 326.775 354.333 334.844 345.543 338.68C333.867 343.771 320.752 343.58 308.276 343.58H281.725" stroke="#CCDDE2" stroke-width="2" stroke-miterlimit="10"/>
<path d="M128.707 270.392C127.66 277.84 126.101 286.384 124.378 294.937L122.348 295.517C115.848 297.342 108.946 297.14 102.565 294.937L105.226 285.896L89.0293 238.775C89.0293 238.775 101.41 234.772 111.576 231.799L112.744 231.749C118.299 232.921 129.745 237.32 130.104 253.796C130.129 254.588 130.104 255.422 130.104 256.331C131.718 261.648 131.075 266.335 128.707 270.392Z" fill="#F47960"/>
<path d="M90.5834 91.0251C90.4237 90.6185 90.1114 90.2912 89.7131 90.1127C89.3145 89.9338 88.862 89.9188 88.4525 90.0702C88.2232 90.1394 88.0109 90.2574 87.8312 90.4163C87.189 90.9375 87.0431 91.8508 87.0222 92.7181C86.9638 94.6989 86.8512 96.6838 86.7053 98.6562C86.7053 98.7896 86.6844 98.9398 86.6844 99.0732C86.5927 100.662 86.6594 102.589 85.9839 103.973C85.9405 104.078 85.8667 104.169 85.7712 104.231C85.546 104.336 85.3083 104.111 85.1624 103.906C84.7454 103.297 84.3284 102.701 83.9114 102.08C83.582 101.584 83.2108 101.046 82.6354 100.887C81.7805 100.649 80.9674 101.404 80.4962 102.172C78.9741 104.674 78.8282 108.773 81.1842 110.87C83.5403 112.968 78.2652 117.092 74.4872 118.826C73.8546 119.182 73.192 119.481 72.5064 119.719C72.4731 119.719 73.87 120.032 73.8367 120.044C70.8968 121.067 67.8344 121.697 64.7294 121.916C61.0431 122.162 57.4486 121.7 54.834 120.098C54.9466 119.681 55.839 116.762 55.8932 116.345C56.085 114.89 56.2226 113.447 56.3102 111.984C56.4686 109.235 56.4561 106.483 56.3519 103.744C55.9724 93.8857 57.728 85.6041 61.7979 84.3406C62.1194 84.2443 62.4276 84.1083 62.7153 83.9361C64.5501 82.9228 65.53 80.7836 64.6877 78.7653C64.6293 78.6277 64.5626 78.4942 64.5042 78.3483C64.4383 78.2044 64.3633 78.0652 64.279 77.9313C72.2271 75.4627 77.623 77.1765 83.0774 80.1623C84.1153 80.9917 85.0911 81.8961 85.9964 82.8686C88.1314 85.1863 89.7014 87.9664 90.5834 90.9917V91.0251Z" fill="#F47960"/>
<path d="M281.641 185.804H254.536V121.019C254.536 121.019 249.532 177.31 235.821 209.202H151.875C161.77 202.914 169.706 193.414 174.989 183.19C177.074 179.145 180.41 173.14 185.956 174.716C187.274 175.087 189.213 175.325 190.193 174.12C190.531 173.657 190.723 173.104 190.744 172.531C191.219 166.626 185.097 161.656 180.052 160.088C175.006 158.52 169.11 159.254 165.094 162.919C162.2 165.567 160.386 169.082 158.268 172.339C156.996 174.269 155.489 176.033 153.781 177.589C155.957 164.37 157.896 151.735 158.176 147.086C163.484 142.895 167.383 136.06 168.768 130.014C170.29 123.408 171.632 116.949 173.997 110.765L193.35 110.832C194.079 110.832 194.778 110.542 195.293 110.027C195.808 109.512 196.098 108.813 196.098 108.084V75.9413C196.099 75.2191 195.814 74.526 195.305 74.0131C194.796 73.5006 194.105 73.2104 193.383 73.2058L180.206 73.0932C184.995 72.0924 189.851 71.4444 194.734 71.1542C194.834 71.1542 194.926 71.1542 195.014 71.1542C198.229 70.9415 203.862 70.8498 207.107 70.8164C203.241 72.9014 200.852 77.3299 201.269 81.2414C201.342 82.0746 201.555 82.8894 201.898 83.6517C205.201 90.9075 213.9 93.0509 221.08 90.9408C229.07 88.6098 234.941 81.2623 234.591 72.8097C239.595 73.5436 244.549 74.4747 249.453 75.6036C256.905 77.3174 264.173 79.6276 270.065 84.665C275.203 89.0393 279.556 94.673 281.57 101.041C290.219 128.267 287.558 158.649 281.641 185.804Z" fill="#2E2E2E"/>
<path d="M158.392 147.087C157.783 157.037 156.215 166.978 154.514 176.894" stroke="black" stroke-width="2" stroke-miterlimit="10"/>
<path d="M174.214 110.765C171.845 116.95 170.506 123.409 168.984 130.014C167.587 136.04 163.697 142.895 158.393 147.086C153.939 150.601 148.485 152.257 142.647 150.038C134.815 147.053 132.067 138.421 131.108 130.811C129.862 121.334 129.786 111.741 130.883 102.246C131.988 104.702 136.504 112.175 150.511 110.211C150.887 110.492 151.339 110.653 151.808 110.674L174.214 110.765Z" fill="#2E2E2E"/>
<path d="M166.348 89.3865C169.609 88.5525 171.594 91.6883 171.111 94.0736C170.322 97.9642 164.726 99.4946 161.394 99.5655C158.726 99.6197 152.22 98.9149 149.568 98.6064" stroke="black" stroke-width="2" stroke-miterlimit="10"/>
<path d="M148.471 91.313C152.505 92.4789 156.778 92.5494 160.848 91.5173C164.272 90.6375 168.316 89.0153 170.11 85.7586C171.156 83.8654 170.322 80.8463 168.137 80.1791C165.614 79.416 163.279 81.9263 160.994 82.5602C159.52 82.9617 158.015 83.2407 156.495 83.3942C156.078 83.44 155.686 83.4734 155.281 83.5068C153.153 83.6773 151.014 83.6619 148.888 83.4609C148.662 83.4609 148.442 83.3896 148.259 83.2574C148.075 83.1248 147.938 82.938 147.867 82.7232C147.796 82.5089 147.794 82.277 147.863 82.0614C147.931 81.8458 148.065 81.6569 148.246 81.5218L148.63 81.2424" stroke="black" stroke-width="2" stroke-miterlimit="10"/>
<path d="M174.213 110.766C171.844 116.95 170.506 123.409 168.984 130.014C166.415 141.102 155.46 154.918 142.646 150.03C134.815 147.045 132.067 138.413 131.107 130.802C129.606 119.018 129.731 106.912 131.941 95.2281C133.776 85.6038 137.033 75.4957 146.399 70.7627L150.794 68.5652C151.842 68.0356 153.056 67.9372 154.176 68.2908C155.296 68.6448 156.233 69.4229 156.786 70.4583C157.124 71.1022 157.303 71.8169 157.308 72.5433C157.312 72.6497 157.303 72.756 157.283 72.8603" stroke="black" stroke-width="2" stroke-miterlimit="10"/>
<path d="M263.484 201.221C265.749 201.151 268.015 201.208 270.273 201.392C272.116 201.542 274.026 201.63 275.782 202.318C277.229 202.894 278.738 204.265 278.663 205.942C278.526 209.228 274.222 209.203 271.862 209.203" stroke="black" stroke-width="2" stroke-miterlimit="10"/>
<path opacity="0.54" d="M222.986 198.089L242.61 147.812C242.853 146.837 242.87 145.82 242.661 144.838C242.452 143.855 242.021 142.934 241.402 142.144C240.783 141.353 239.991 140.714 239.088 140.276C238.184 139.837 237.193 139.61 236.188 139.613H158.259C156.513 139.617 154.818 140.208 153.448 141.291C152.078 142.374 151.111 143.886 150.703 145.585L129.195 195.85C128.961 196.82 128.951 197.831 129.165 198.806C129.378 199.781 129.81 200.695 130.428 201.478C131.046 202.262 131.833 202.896 132.731 203.332C133.629 203.767 134.614 203.994 135.612 203.994H215.426C217.164 203.993 218.852 203.411 220.221 202.341C221.591 201.272 222.564 199.775 222.986 198.089Z" fill="white"/>
<path d="M222.986 198.089L242.61 147.812C242.853 146.837 242.87 145.82 242.661 144.838C242.452 143.855 242.021 142.934 241.402 142.144C240.783 141.353 239.991 140.714 239.088 140.276C238.184 139.837 237.193 139.61 236.188 139.613H158.259C156.513 139.617 154.818 140.208 153.448 141.291C152.078 142.374 151.111 143.886 150.703 145.585L129.195 195.85C128.961 196.82 128.951 197.831 129.165 198.806C129.378 199.781 129.81 200.695 130.428 201.478C131.046 202.262 131.833 202.896 132.731 203.332C133.629 203.767 134.614 203.994 135.612 203.994H215.426C217.164 203.993 218.852 203.411 220.221 202.341C221.591 201.272 222.564 199.775 222.986 198.089Z" fill="#F47960"/>
<path d="M222.986 198.089L242.61 147.812C242.853 146.837 242.87 145.82 242.661 144.838C242.452 143.855 242.021 142.934 241.402 142.144C240.782 141.353 239.991 140.714 239.088 140.276C238.184 139.837 237.193 139.61 236.188 139.613H158.259C156.513 139.617 154.818 140.208 153.448 141.291C152.078 142.374 151.111 143.886 150.703 145.585L129.195 195.85C128.961 196.82 128.951 197.831 129.165 198.806C129.378 199.781 129.81 200.695 130.428 201.478C131.046 202.262 131.833 202.896 132.731 203.332C133.629 203.767 134.614 203.994 135.612 203.994H215.426C217.164 203.993 218.852 203.411 220.221 202.341C221.591 201.272 222.564 199.775 222.986 198.089Z" stroke="black" stroke-width="2" stroke-linecap="square" stroke-linejoin="round"/>
<path d="M220.112 196.055L238.218 149.672C238.443 148.774 238.46 147.837 238.268 146.932C238.075 146.026 237.68 145.177 237.11 144.448C236.54 143.719 235.812 143.129 234.98 142.723C234.148 142.318 233.235 142.107 232.31 142.107H160.398C158.784 142.107 157.216 142.65 155.948 143.649C154.68 144.649 153.786 146.046 153.409 147.616L133.606 193.991C133.392 194.885 133.384 195.817 133.582 196.715C133.78 197.613 134.179 198.455 134.749 199.178C135.318 199.9 136.044 200.484 136.872 200.885C137.699 201.287 138.607 201.496 139.527 201.497H213.14C214.743 201.498 216.3 200.963 217.564 199.977C218.827 198.99 219.724 197.61 220.112 196.055Z" fill="#F47960"/>
<path d="M165.586 150.656C166.541 149.226 168.088 148.571 169.072 149.234C170.056 149.897 170.056 151.565 169.105 152.987C168.955 153.206 168.788 153.413 168.605 153.604L175.669 168.52C176.795 167.77 178.033 167.582 178.925 168.174C179.211 168.383 179.448 168.651 179.62 168.961C179.791 169.271 179.893 169.614 179.918 169.967L184.747 168.341L188.967 166.919L190.343 166.469C190.517 165.95 190.758 165.457 191.06 165.001C192.399 162.987 194.588 162.082 195.952 162.999C197.315 163.917 197.332 166.231 196.031 168.229L204.079 179.216C205.834 177.778 207.899 177.332 209.329 178.282C211.276 179.579 211.305 182.961 209.396 185.83C209.316 185.947 209.229 186.039 209.15 186.147L214.504 193.47L214.554 193.54C214.827 193.954 214.926 194.459 214.827 194.944C214.729 195.43 214.442 195.856 214.028 196.13C213.615 196.404 213.111 196.502 212.625 196.404C212.139 196.305 211.712 196.018 211.439 195.605L206.685 188.428C205.18 189.3 203.578 189.466 202.407 188.687C200.547 187.436 200.455 184.316 202.115 181.535L194.413 169.909C193.274 170.681 192.019 170.877 191.118 170.28C190.618 169.925 190.277 169.387 190.168 168.783L189.592 168.942L185.301 170.113L179.805 171.598C179.634 172.256 179.352 172.881 178.971 173.445C177.633 175.455 175.443 176.364 174.08 175.447C172.716 174.529 172.695 172.173 174.034 170.159C174.23 169.864 174.451 169.585 174.693 169.325L167.967 154.13C167.158 154.684 166.261 154.826 165.619 154.397C164.651 153.754 164.635 152.07 165.586 150.656Z" fill="#D7E8F0"/>
<path d="M216.756 151.456H227.181C227.657 151.455 228.123 151.316 228.522 151.055C228.921 150.795 229.236 150.424 229.428 149.988C229.486 149.856 229.517 149.715 229.52 149.571C229.519 149.286 229.405 149.014 229.204 148.813C229.002 148.612 228.729 148.499 228.444 148.499H217.365C217.886 149.371 217.623 150.592 216.756 151.456Z" fill="#D7E8F0"/>
<path d="M210.018 150.389C210.019 150.672 210.132 150.944 210.333 151.143C210.534 151.343 210.806 151.456 211.089 151.456H216.756C217.624 150.593 217.886 149.371 217.365 148.491H212.361C211.885 148.491 211.419 148.629 211.02 148.889C210.621 149.149 210.306 149.519 210.113 149.955C210.052 150.091 210.019 150.239 210.018 150.389Z" fill="#F47960"/>
<path d="M212.624 151.457C212.655 151.514 212.689 151.569 212.728 151.62C213.471 152.637 215.085 152.733 216.336 151.82C216.484 151.71 216.623 151.589 216.753 151.457C217.62 150.594 217.883 149.372 217.361 148.492C217.334 148.435 217.3 148.38 217.261 148.33C216.523 147.308 214.909 147.221 213.658 148.125C213.51 148.237 213.371 148.36 213.241 148.492C212.374 149.36 212.111 150.573 212.624 151.457Z" fill="white"/>
<path d="M207.414 156.932C207.416 157.216 207.531 157.487 207.732 157.687C207.934 157.887 208.206 157.999 208.49 157.999H219.428C218.898 157.115 219.161 155.914 220.029 155.034H209.741C209.264 155.035 208.797 155.173 208.398 155.434C207.998 155.695 207.682 156.065 207.489 156.502C207.437 156.639 207.411 156.785 207.414 156.932Z" fill="#F47960"/>
<path d="M219.412 157.999H224.557C225.033 157.999 225.499 157.861 225.897 157.602C226.296 157.343 226.612 156.974 226.805 156.539C226.864 156.408 226.896 156.266 226.901 156.122C226.901 155.982 226.874 155.842 226.82 155.712C226.767 155.582 226.688 155.463 226.588 155.364C226.489 155.264 226.37 155.185 226.24 155.131C226.11 155.077 225.97 155.05 225.829 155.051H220.012C219.145 155.901 218.882 157.115 219.412 157.999Z" fill="#D7E8F0"/>
<path d="M219.412 157.999C219.436 158.057 219.467 158.112 219.504 158.162C220.242 159.184 221.856 159.275 223.107 158.366C223.255 158.255 223.394 158.132 223.524 157.999C224.383 157.132 224.645 155.914 224.132 155.035C224.102 154.978 224.069 154.924 224.032 154.872C223.286 153.854 221.672 153.763 220.421 154.676C220.273 154.784 220.133 154.904 220.004 155.035C219.145 155.902 218.882 157.115 219.412 157.999Z" fill="white"/>
<path d="M215.756 164.496H222.303C222.779 164.495 223.246 164.357 223.645 164.097C224.045 163.837 224.361 163.468 224.555 163.032C224.612 162.9 224.643 162.759 224.646 162.615C224.646 162.33 224.533 162.055 224.331 161.853C224.13 161.651 223.856 161.536 223.57 161.535H216.377C216.894 162.415 216.627 163.628 215.756 164.496Z" fill="#F47960"/>
<path d="M205.154 163.433C205.155 163.574 205.183 163.712 205.237 163.841C205.291 163.971 205.37 164.088 205.47 164.187C205.57 164.285 205.688 164.364 205.817 164.417C205.947 164.47 206.086 164.497 206.226 164.496H215.754C216.613 163.629 216.88 162.411 216.363 161.527H207.498C207.02 161.527 206.553 161.666 206.154 161.928C205.755 162.189 205.44 162.562 205.25 162.999C205.189 163.136 205.156 163.284 205.154 163.433Z" fill="#D7E8F0"/>
<path d="M211.635 164.496C211.666 164.553 211.7 164.607 211.74 164.659C212.478 165.68 214.087 165.768 215.342 164.859C215.49 164.749 215.63 164.628 215.759 164.496C216.618 163.629 216.885 162.411 216.368 161.527C216.341 161.469 216.307 161.415 216.268 161.364C215.522 160.351 213.912 160.263 212.657 161.168C212.51 161.278 212.37 161.398 212.24 161.527C211.381 162.394 211.114 163.616 211.635 164.496Z" fill="white"/>
<path d="M173.434 195.136H179.985C180.46 195.135 180.926 194.997 181.325 194.737C181.724 194.477 182.039 194.107 182.232 193.673C182.289 193.541 182.321 193.399 182.324 193.256C182.324 192.97 182.211 192.697 182.009 192.495C181.807 192.293 181.533 192.18 181.248 192.18H174.055C174.559 193.055 174.293 194.269 173.434 195.136Z" fill="#F47960"/>
<path d="M147.438 194.073C147.438 194.214 147.466 194.352 147.52 194.482C147.574 194.611 147.654 194.728 147.753 194.827C147.852 194.926 147.97 195.004 148.1 195.057C148.23 195.11 148.369 195.137 148.509 195.137H173.433C174.292 194.269 174.559 193.052 174.042 192.172H149.781C149.304 192.171 148.838 192.31 148.438 192.571C148.039 192.832 147.725 193.203 147.533 193.64C147.474 193.776 147.441 193.924 147.438 194.073Z" fill="#D7E8F0"/>
<path d="M169.302 195.137C169.333 195.194 169.367 195.248 169.407 195.3C170.145 196.321 171.754 196.409 173.009 195.504C173.157 195.391 173.296 195.269 173.426 195.137C174.285 194.27 174.552 193.052 174.035 192.172C174.008 192.114 173.974 192.06 173.935 192.01C173.189 190.992 171.579 190.905 170.324 191.809C170.175 191.919 170.036 192.04 169.907 192.172C169.052 193.035 168.781 194.257 169.302 195.137Z" fill="white"/>
<path d="M8.58202 211.196C8.58202 211.196 -5.17898 273.358 30.2201 286.343C65.6192 299.329 161.242 287.131 121.501 242.279C81.7613 197.426 8.58202 211.196 8.58202 211.196Z" fill="#2E2E2E"/>
<path d="M180.344 73.0938C185.155 72.09 190.033 71.4395 194.939 71.1464C195.043 71.1464 195.131 71.1464 195.222 71.1464C198.446 70.9337 204.092 70.842 207.315 70.8086" stroke="black" stroke-width="2" stroke-miterlimit="10"/>
<path d="M156.496 83.3818C156.462 83.4027 156.442 83.4277 156.408 83.4486" stroke="black" stroke-width="2" stroke-miterlimit="10"/>
<path d="M211.356 57.2477C208.896 58.5404 206.069 57.6647 204.984 55.4629" stroke="black" stroke-width="2" stroke-miterlimit="10"/>
<path d="M197.074 25.8264C196.963 27.7396 197.454 29.6394 198.478 31.259C199.502 32.8791 201.007 34.1376 202.783 34.8586C203.158 34.1693 203.696 33.5826 204.351 33.1489C207.115 31.3599 206.623 36.1388 214.129 34.8794C224.533 33.1239 227.186 36.7476 227.186 36.7476C227.415 37.0645 226.769 39.1328 226.677 39.5123C226.26 41.7349 225.843 43.945 225.463 46.1843C225.219 47.5408 224.971 48.889 224.721 50.2292C224.91 50.0457 225.111 49.8743 225.322 49.7163C227.031 47.0475 229.537 44.0534 232.269 46.497C232.817 47.0058 233.237 47.6375 233.495 48.3402C234.746 51.7387 232.352 53.9238 229.554 55.2332C228.816 55.6798 228.032 56.0447 227.215 56.3216C227.352 57.1806 227.924 60.6042 227.924 60.6125C227.982 60.9628 234.929 56.6802 235.509 56.1589C236.556 54.7741 237.364 53.2237 237.898 51.5719C240.058 44.7582 239.691 35.9511 235.342 30.3466C234.262 28.958 234.983 28.1574 235.296 26.8063C235.311 26.7333 235.304 26.6579 235.276 26.5895C235.247 26.5207 235.199 26.4623 235.137 26.4214C235.075 26.3805 235.002 26.3593 234.928 26.3601C234.854 26.3614 234.782 26.3843 234.721 26.4268C232.377 27.8988 228.136 26.3935 228.136 26.3935C214.375 18.1284 207.324 23.241 203.95 23.4995C202.582 23.5933 201.224 23.2068 200.11 22.407C199.914 22.7939 199.616 23.12 199.249 23.3506C198.882 23.5812 198.458 23.7076 198.025 23.7163L197.891 24.4336C197.789 24.9786 197.5 25.4711 197.074 25.8264Z" fill="#F47960"/>
<path d="M202.791 34.8755C201.015 34.1549 199.51 32.8964 198.485 31.2764C197.462 29.6563 196.971 27.7565 197.082 25.8433C197.123 25.1085 197.229 24.3788 197.399 23.6624L197.52 23.6874C197.684 23.7245 197.852 23.737 198.02 23.7249C198.454 23.7166 198.877 23.5902 199.244 23.3596C199.612 23.129 199.909 22.8025 200.105 22.4156C200.22 22.2004 200.3 21.9681 200.343 21.7275L200.985 18.2373C200.985 18.2373 203.07 21.0603 206.406 20.7976C209.742 20.5349 216.793 15.4226 230.592 23.6916C230.592 23.6916 233.903 24.9134 236.246 23.4414C236.307 23.3993 236.379 23.3759 236.454 23.3751C236.528 23.3742 236.601 23.3955 236.663 23.4364C236.725 23.4772 236.773 23.5356 236.801 23.604C236.83 23.6728 236.837 23.7483 236.822 23.8208C236.509 25.1678 236.718 26.2561 237.798 27.6447C242.147 33.2492 242.514 42.0563 240.354 48.87C239.408 51.694 237.729 54.2151 235.488 56.1759C234.908 56.6971 227.961 60.9797 227.902 60.6294C227.902 60.6294 227.331 57.1975 227.193 56.3385L227.16 56.1425L227.356 56.0841C228.099 55.8544 228.826 55.5758 229.533 55.2501C232.331 53.9408 234.737 51.7557 233.473 48.3571C233.216 47.6549 232.796 47.0231 232.247 46.514C229.516 44.0704 227.01 47.0644 225.3 49.7332C224.97 50.2399 224.698 50.7828 224.491 51.3512C224.558 50.9842 224.625 50.6256 224.696 50.2586C224.946 48.9159 225.193 47.5677 225.438 46.2138C225.855 43.987 226.243 41.7769 226.651 39.5418C226.726 39.1623 227.389 37.094 227.16 36.777C227.16 36.777 224.508 33.1533 214.104 34.9089C206.598 36.1599 207.09 31.3894 204.325 33.1783C203.671 33.612 203.133 34.1991 202.757 34.888C202.641 35.1128 202.538 35.3438 202.449 35.5803C202.434 35.6099 202.421 35.6407 202.411 35.672C202.223 36.1891 202.052 36.7103 201.886 37.2191C200.326 42.1772 199.296 47.5315 199.847 52.7398C200.518 59.0532 205.117 66.4758 212.436 65.8461C214.738 65.5763 216.984 64.9458 219.091 63.978" stroke="black" stroke-width="2" stroke-miterlimit="10"/>
<path d="M203.589 48.3313C204.305 48.3109 204.866 47.5928 204.842 46.7271C204.817 45.8614 204.217 45.1763 203.501 45.1967C202.785 45.2168 202.224 45.9348 202.249 46.8005C202.273 47.6662 202.874 48.3513 203.589 48.3313Z" fill="black"/>
<path d="M213.388 50.9651C214.104 50.9447 214.665 50.2266 214.641 49.3613C214.616 48.4956 214.016 47.8101 213.3 47.8305C212.584 47.851 212.023 48.569 212.048 49.4343C212.072 50.3 212.672 50.9855 213.388 50.9651Z" fill="black"/>
<path d="M209.158 51.5428C209.158 51.5428 205.367 52.3768 205.751 50.4336C205.868 49.8248 206.818 43.845 206.818 43.845C206.818 43.845 205.05 40.2838 200.426 41.1137" stroke="black" stroke-width="2" stroke-miterlimit="10"/>
<path d="M210.859 43.3128C210.859 43.3128 216.868 42.2911 219.17 47.0908" stroke="black" stroke-width="2" stroke-miterlimit="10"/>
<path d="M207.383 70.7578C202.65 73.2598 200.123 79.2813 202.103 83.6389C205.406 90.8989 214.1 93.034 221.285 90.9364C229.275 88.6012 235.146 81.237 234.796 72.7928" stroke="black" stroke-width="2" stroke-miterlimit="10"/>
<path d="M236.038 209.199C249.761 177.307 254.744 121.016 254.744 121.016V199.554C254.744 200.821 254.993 202.075 255.477 203.246C255.962 204.416 256.672 205.48 257.568 206.375C258.464 207.271 259.527 207.982 260.698 208.466C261.868 208.951 263.123 209.2 264.39 209.199H294.831C295.972 209.217 297.079 208.813 297.94 208.064C298.802 207.315 299.356 206.274 299.497 205.142C299.558 204.518 299.488 203.888 299.291 203.293C299.093 202.698 298.774 202.151 298.352 201.687C297.93 201.222 297.416 200.852 296.843 200.599C296.27 200.346 295.649 200.216 295.022 200.217H282.554C282.057 200.215 281.567 200.1 281.12 199.881C280.675 199.661 280.285 199.342 279.98 198.949C279.676 198.555 279.466 198.098 279.366 197.611C279.266 197.124 279.278 196.62 279.402 196.139C286.908 166.532 291.549 131.779 281.778 101.025C279.76 94.6785 275.411 89.024 270.273 84.6539C264.377 79.6165 257.109 77.3063 249.661 75.5966C244.749 74.4707 239.794 73.5392 234.795 72.8027C234.78 72.8077 234.764 72.8077 234.749 72.8027C234.716 72.8027 234.682 72.8027 234.662 72.8027H234.628H234.582H234.516" stroke="black" stroke-width="2" stroke-miterlimit="10"/>
<path d="M231.652 58.6318L231.102 68.594C231.049 69.5677 231.355 70.5268 231.961 71.2903C232.567 72.0538 233.432 72.5692 234.392 72.7389H234.517C234.538 72.7331 234.562 72.7331 234.583 72.7389H234.604H234.663" stroke="black" stroke-width="2" stroke-miterlimit="10"/>
<path d="M234.75 72.7848H234.663H234.629H234.604H234.583H234.517H234.392C233.432 72.6151 232.567 72.0997 231.961 71.3362C231.355 70.5722 231.049 69.6131 231.102 68.6399L231.652 58.6777" stroke="black" stroke-width="2" stroke-miterlimit="10"/>
<path d="M208.17 65.2254C207.899 65.117 208.17 76.351 201.469 81.2299" stroke="black" stroke-width="2" stroke-miterlimit="10"/>
<path d="M118.452 209.202H96.9844" stroke="black" stroke-width="2" stroke-miterlimit="10"/>
<path d="M328.174 209.202H151.875" stroke="black" stroke-width="2" stroke-miterlimit="10"/>
<path d="M56.3564 103.73C56.5632 107.936 56.4127 112.152 55.906 116.332C55.2555 121.244 50.7144 127.487 49.7303 132.345C48.325 139.334 50.4517 146.556 53.3707 153.044C56.8985 160.888 62.4571 168.778 61.915 177.76C61.6373 181.672 60.4734 185.47 58.511 188.865C56.5491 192.26 53.8398 195.165 50.5893 197.359C46.137 200.338 41.0508 202.237 35.7357 202.905C34.9935 202.993 34.2387 203.064 33.4839 203.084C33.0669 203.084 32.6499 203.039 32.2329 203.005C18.0966 201.808 3.59756 191.025 3.63092 176.013C3.63092 166.422 10.92 158.916 12.1502 149.608C12.905 143.916 11.237 138.003 12.7799 132.478C15.2819 123.654 24.9521 118.842 29.1888 110.719C32.308 104.723 32.8167 97.7252 35.2854 91.4369C38.7215 82.6799 44.2092 72.6719 51.7152 71.8379C53.8932 72.0848 55.9986 72.7716 57.9035 73.8562C62.5572 76.3582 63.7415 76.5166 64.6881 78.7476C65.6555 81.0786 64.2127 83.5681 61.8024 84.3145C57.7325 85.6031 55.9769 93.8722 56.3564 103.73Z" fill="#F47960"/>
<path d="M60.4473 75.2131C72.6654 71.6728 80.4299 76.8811 85.9843 82.8859C91.5388 88.8907 91.2802 95.7087 91.2802 95.7087" stroke="black" stroke-width="2" stroke-miterlimit="10"/>
<path d="M98.3453 192.655C98.161 202.201 96.9517 211.699 94.7383 220.986" stroke="black" stroke-width="2" stroke-miterlimit="10"/>
<path d="M128.707 270.392C124.233 278.09 113.62 283.557 100.635 286.96C77.5913 292.998 47.0836 292.527 30.2285 286.338C-5.19154 273.357 8.5778 211.195 8.5778 211.195C8.5778 211.195 69.8393 199.665 110.689 232.045C114.591 235.13 118.213 238.553 121.514 242.274C126.03 247.382 128.803 252.057 130.112 256.327C131.718 261.648 131.076 266.335 128.707 270.392Z" stroke="black" stroke-width="2" stroke-miterlimit="10"/>
<path d="M105.225 285.91C105.225 285.91 83.7623 345.487 119.82 360.703C155.878 375.92 -12.5939 377.946 24.5942 360.703C61.7823 343.46 40.4068 289.551 40.4068 289.551" stroke="black" stroke-width="2" stroke-miterlimit="10"/>
<path d="M148.885 83.4478C148.438 82.0842 148.622 77.3429 148.768 74.6658C148.796 74.1604 149.02 73.6854 149.392 73.3422C149.764 72.999 150.255 72.8139 150.761 72.8268L193.6 73.2021C194.322 73.2088 195.012 73.5003 195.521 74.0132C196.029 74.5265 196.314 75.2196 196.314 75.9418V108.088C196.314 108.449 196.243 108.806 196.104 109.14C195.966 109.473 195.763 109.776 195.507 110.03C195.252 110.285 194.948 110.486 194.614 110.623C194.281 110.76 193.923 110.83 193.562 110.828L151.816 110.674C151.212 110.649 150.64 110.391 150.221 109.954C149.802 109.517 149.568 108.935 149.569 108.33V105.878C152.538 107.263 158.15 107.688 158.15 107.688C160.148 107.634 163.304 107.392 165.035 106.399C166.62 105.49 168.621 104.185 168.892 102.209C168.997 101.444 168.795 100.669 168.33 100.054C167.865 99.4377 167.175 99.0311 166.411 98.9227C165.952 98.8309 165.477 98.8643 165.035 99.0186" stroke="black" stroke-width="2" stroke-miterlimit="10"/>
<path d="M190.693 172.532C190.673 173.105 190.48 173.66 190.139 174.121C189.159 175.326 187.22 175.088 185.902 174.717C180.36 173.141 177.032 179.146 174.939 183.19C169.652 193.415 161.72 202.915 151.825 209.203C151.183 209.62 150.528 210.012 149.865 210.396C140.195 215.975 127.664 214.937 118.311 209.145L130.27 179.767L131.454 180.713C138.677 186.414 147.567 183.215 153.722 177.59C155.431 176.034 156.938 174.27 158.209 172.34C160.327 169.083 162.141 165.568 165.04 162.92C169.051 159.255 174.922 158.537 179.993 160.089C185.064 161.64 191.152 166.627 190.693 172.532Z" fill="white"/>
<path d="M190.642 170.451C190.642 170.451 189.283 163.253 177.027 168.87" stroke="black" stroke-width="2" stroke-miterlimit="10"/>
<path d="M183.824 161.811C183.824 161.811 176.185 159.367 171.932 165.205" stroke="black" stroke-width="2" stroke-miterlimit="10"/>
<path d="M29.6146 203.02C31.6542 203.201 33.7075 203.168 35.7404 202.92C41.0542 202.242 46.1374 200.34 50.5897 197.361C53.8403 195.167 56.5491 192.262 58.5115 188.867C60.4735 185.471 61.6377 181.674 61.9155 177.762C62.4576 168.776 56.9115 160.886 53.3711 153.042C50.4521 146.549 48.3254 139.327 49.7349 132.346C50.7148 127.484 55.2476 121.245 55.9023 116.329C56.4115 112.149 56.5649 107.934 56.361 103.727C55.9816 93.8653 57.733 85.5882 61.8029 84.3289C64.2131 83.5825 65.6601 81.0888 64.6885 78.7619C63.7586 76.5268 62.5618 76.3934 57.9039 73.8622C45.7609 67.2569 37.3166 79.5709 32.6546 91.4429C30.1818 97.7355 29.6814 104.724 26.558 110.721C22.3213 118.848 12.6302 123.648 10.1532 132.488C8.60614 138.009 10.2741 143.927 9.52354 149.61C8.29756 158.914 1.02091 166.415 1.00006 176.015C0.966697 191.023 15.4825 201.814 29.6146 203.02Z" stroke="black" stroke-width="2" stroke-miterlimit="10"/>
<path d="M128.706 270.394C127.659 277.841 126.1 286.385 124.382 294.938C119.511 319.178 113.314 343.565 113.314 343.565" stroke="black" stroke-width="2" stroke-miterlimit="10"/>
<path d="M130.095 256.328C130.116 255.418 130.129 254.584 130.095 253.792C129.724 236.695 117.431 232.609 112.143 231.629C111.354 231.474 110.556 231.373 109.754 231.324" stroke="black" stroke-width="2" stroke-miterlimit="10"/>
<path d="M115.15 336.171C115.83 335.755 116.61 335.527 117.407 335.512C118.205 335.496 118.993 335.694 119.689 336.085C120.385 336.475 120.964 337.044 121.367 337.733C121.77 338.422 121.981 339.206 121.98 340.003C121.98 340.062 121.98 340.133 121.98 340.216C121.913 342.275 121.371 344.291 120.395 346.106C119.419 347.92 118.036 349.484 116.355 350.675L110.559 354.799" stroke="black" stroke-width="2" stroke-miterlimit="10"/>
<path d="M49.3047 137.858C50.1137 137.528 50.9393 137.236 51.7733 136.965C53.5289 133.721 53.2578 126.62 53.091 124.038L54.8466 120.081C59.6922 123.058 66.1056 121.941 72.0562 119.868C72.8919 119.576 73.7046 119.222 74.4873 118.809C78.2653 117.074 83.5612 112.971 81.1843 110.853C78.8074 108.734 78.9742 104.656 80.4963 102.154C80.9592 101.387 81.7807 100.632 82.6355 100.87C83.211 101.028 83.5821 101.566 83.9115 102.062C84.3285 102.684 84.7455 103.28 85.1625 103.889C85.3085 104.093 85.5462 104.306 85.7713 104.214C85.8668 104.152 85.9406 104.062 85.984 103.956C86.7179 102.446 86.5803 100.282 86.7054 98.6264C86.8514 96.6539 86.964 94.669 87.0223 92.6883C87.0557 91.5957 87.2809 90.424 88.4526 90.0403C88.6891 89.9494 88.9435 89.9131 89.1962 89.9348C89.4484 89.9565 89.6928 90.0353 89.9105 90.1654C90.1277 90.2959 90.3129 90.474 90.4509 90.6863C90.5894 90.8989 90.6773 91.14 90.7086 91.3914C91.5614 96.184 91.6865 101.077 91.0797 105.907C90.5043 110.965 89.466 116.332 86.2217 120.41C84.3736 122.763 81.897 124.544 79.0785 125.548C76.3513 126.494 76.4389 129.785 76.4389 132.67V137.462C84.8248 139.163 92.7019 141.215 99.2154 147.053C103.523 150.991 107.576 155.198 111.35 159.65C123.23 173.59 125.799 176.205 131.52 180.713C138.743 186.413 147.637 183.215 153.788 177.589C155.494 176.033 156.998 174.269 158.267 172.339C160.385 169.083 162.199 165.567 165.093 162.919C169.109 159.254 174.98 158.537 180.051 160.088C185.122 161.639 191.218 166.627 190.734 172.531C190.714 173.104 190.522 173.658 190.184 174.12C189.204 175.325 187.265 175.087 185.947 174.716C180.401 173.14 177.078 179.145 174.98 183.19C169.697 193.415 161.761 202.914 151.866 209.202C151.224 209.619 150.573 210.011 149.906 210.395C138.851 216.775 124.031 214.498 114.523 206.371L91.5885 186.901" stroke="black" stroke-width="2" stroke-miterlimit="10"/>
<path d="M51.7734 136.966C51.7734 136.966 62.728 133.58 76.439 137.475" stroke="black" stroke-width="2" stroke-miterlimit="10"/>
<path d="M149.568 105.879C149.568 105.879 149.652 120.057 153.034 125.515" stroke="black" stroke-width="2" stroke-miterlimit="10"/>
<path d="M160.681 40.9846C158.079 45.4256 158.2 48.5781 158.876 53.6947C158.931 54.1305 158.863 54.5729 158.678 54.9716C158.493 55.3702 158.2 55.7084 157.831 55.9474C157.462 56.1863 157.033 56.316 156.594 56.3218C156.155 56.3273 155.723 56.2088 155.348 55.9799C140.336 47.3397 126.287 54.1743 108.364 49.9417C101.784 48.3947 93.5817 45.1963 87.9563 40.0463C86.0903 37.2745 85.094 34.009 85.0957 30.668C85.0957 16.6608 104.232 5.30176 127.826 5.30176C142.95 5.30176 156.236 9.96799 163.834 16.9986C163.834 16.9986 163.834 16.9986 163.854 17.0236C165.761 19.7642 166.801 23.014 166.84 26.352C166.84 31.3936 163.104 36.8146 160.681 40.9846Z" fill="#D7E8F0"/>
<path d="M166.774 26.361V26.7154C166.687 31.6235 164.23 36.1855 161.316 40.1345C159.364 42.7783 157.05 45.7098 157.6 48.9499C157.842 50.376 158.638 51.6729 158.851 53.1199C159.064 54.5669 158.288 56.3391 156.841 56.4142C155.924 56.46 155.14 55.8053 154.414 55.2424C150.107 51.9064 144.51 50.6554 139.069 50.4386C133.627 50.2217 128.193 50.9348 122.747 51.0891C114.899 51.3143 106.926 50.3343 99.6747 47.3361C93.1569 44.6172 87.2147 40.197 83.3032 34.3132C79.4627 28.5127 81.7353 20.0976 85.8302 15.056C89.675 10.3273 95.2378 7.29983 100.946 5.16896C116.296 -0.564788 133.819 -0.42718 148.96 5.84867C153.455 7.69181 157.792 10.1271 161.17 13.6382C164.464 17.0618 166.745 21.6239 166.774 26.361Z" stroke="black" stroke-width="2" stroke-miterlimit="10"/>
<path d="M103.783 31.9402C107.039 31.9402 109.679 29.3006 109.679 26.0438C109.679 22.7875 107.039 20.1475 103.783 20.1475C100.527 20.1475 97.8867 22.7875 97.8867 26.0438C97.8867 29.3006 100.527 31.9402 103.783 31.9402Z" fill="white"/>
<path d="M122.848 31.9402C126.104 31.9402 128.744 29.3006 128.744 26.0438C128.744 22.7875 126.104 20.1475 122.848 20.1475C119.591 20.1475 116.951 22.7875 116.951 26.0438C116.951 29.3006 119.591 31.9402 122.848 31.9402Z" fill="white"/>
<path d="M142.283 31.9402C145.539 31.9402 148.179 29.3006 148.179 26.0438C148.179 22.7875 145.539 20.1475 142.283 20.1475C139.027 20.1475 136.387 22.7875 136.387 26.0438C136.387 29.3006 139.027 31.9402 142.283 31.9402Z" fill="white"/>
<g opacity="0.54">
<path opacity="0.54" d="M255.587 273.255L253.19 307.866C252.093 309.955 250.723 311.889 249.116 313.616C248.94 313.553 248.765 313.487 248.594 313.407C248.273 313.299 247.956 313.17 247.656 313.045C242.798 310.914 239.108 306.944 238.032 302.445C237.06 298.504 237.936 294.246 236.059 290.543C233.77 285.981 227.544 283.121 226.781 277.975C226.064 273.159 230.401 268.743 229.7 264.022C228.866 258.685 222.34 255.52 221.118 250.307C220.355 247.067 221.039 243.347 220.751 240.011C220.434 236.28 219.808 232.58 218.879 228.952C228.541 228.252 238.374 233.577 241.505 241.204C244.062 247.459 242.523 254.744 246.509 260.432C248.686 263.513 252.31 265.819 254.186 269.043C254.765 270.049 255.187 271.137 255.437 272.27C255.437 272.35 255.437 272.429 255.466 272.491C255.466 272.621 255.5 272.712 255.517 272.808C255.558 273.096 255.587 273.255 255.587 273.255Z" fill="#F47960"/>
<path opacity="0.54" d="M255.604 273.225C255.604 273.225 255.574 273.083 255.541 272.808C255.569 272.917 255.59 273.029 255.604 273.141C255.609 273.154 255.613 273.168 255.613 273.183C255.613 273.197 255.609 273.211 255.604 273.225Z" fill="#F47960"/>
</g>
<path d="M287.524 259.719C286.273 264.214 279.422 266.945 278.596 271.553C277.867 275.64 282.379 279.451 281.632 283.6C280.836 288.05 274.351 290.51 271.97 294.442C270.031 297.636 270.936 301.31 269.935 304.709C268.776 308.57 264.931 312.019 259.861 313.845C259.544 313.958 259.244 314.066 258.922 314.162C258.747 314.212 258.555 314.275 258.38 314.321C256.712 312.94 254.773 310.509 253.201 307.886L255.586 273.254C257.446 271.678 259.573 270.235 261.053 268.484C262.659 266.595 263.405 264.531 263.881 262.366H263.931V262.129C264.627 258.714 264.69 255.136 266.295 251.896C269.552 245.303 279.772 240.708 289.83 241.312C288.881 244.426 288.232 247.624 287.891 250.861C287.604 253.726 288.313 256.937 287.524 259.719Z" fill="#F47960"/>
<path d="M263.948 262.099V262.336H263.898L263.948 262.099Z" fill="#F47960"/>
<path d="M263.947 262.099L263.897 262.337C263.422 264.501 262.675 266.565 261.07 268.454C259.589 270.206 257.463 271.649 255.603 273.225C255.61 273.203 255.61 273.18 255.603 273.158C255.59 273.046 255.569 272.934 255.54 272.825C255.54 272.729 255.507 272.637 255.49 272.508C255.49 272.445 255.49 272.366 255.461 272.287C255.211 271.153 254.789 270.065 254.21 269.059C252.334 265.836 248.71 263.53 246.533 260.448C246.533 260.448 247.517 244.206 255.828 239.264C263.709 234.594 263.947 259.397 263.947 262.099Z" fill="#F47960"/>
<path d="M263.948 262.099V262.336H263.898L263.948 262.099Z" fill="#F47960"/>
<path d="M255.586 273.158V273.254C255.586 273.254 255.557 273.112 255.523 272.837C255.551 272.942 255.572 273.05 255.586 273.158Z" fill="#F47960"/>
<path d="M254.846 273.254C256.697 271.677 258.849 270.214 260.333 268.466C264.503 263.55 262.894 257.266 265.567 251.874C268.819 245.29 279.048 240.698 289.102 241.299C288.148 244.412 287.497 247.61 287.159 250.848C286.859 253.734 287.576 256.94 286.788 259.734C285.508 264.23 278.681 266.957 277.851 271.565C277.113 275.647 281.638 279.458 280.891 283.603C280.095 288.057 273.615 290.517 271.229 294.445C269.282 297.644 270.195 301.309 269.186 304.716C267.964 308.824 263.711 312.452 258.169 314.165C257.994 314.224 257.802 314.286 257.623 314.332C255.955 312.952 254.016 310.521 252.439 307.894" stroke="black" stroke-width="2" stroke-miterlimit="10"/>
<path d="M282.963 246.456C267.972 262.59 260.921 296.604 258.177 314.169C257.951 315.649 257.76 317.004 257.576 318.226" stroke="black" stroke-width="2" stroke-miterlimit="10"/>
<path d="M284.347 328.118L277.47 368.813C277.307 369.928 276.754 370.948 275.91 371.694C275.065 372.44 273.984 372.863 272.858 372.888H236.796C235.658 372.862 234.568 372.43 233.721 371.671C232.873 370.911 232.325 369.874 232.176 368.747L225.816 328.114L284.347 328.118Z" stroke="black" stroke-width="2" stroke-miterlimit="10"/>
<path d="M290.898 323.574C290.837 324.781 290.321 325.92 289.455 326.763C288.589 327.606 287.436 328.091 286.228 328.12H224.049C222.854 328.091 221.713 327.616 220.851 326.789C219.988 325.962 219.466 324.842 219.387 323.65C219.124 320.731 221.284 318.229 224.049 318.229H286.228C288.968 318.233 291.119 320.697 290.898 323.574Z" stroke="black" stroke-width="2" stroke-miterlimit="10"/>
<path d="M248.377 313.606C251.046 310.959 254.315 305.054 255.762 300.233C256.955 296.259 254.857 292.169 254.374 288.09C253.623 281.706 256.792 274.842 253.452 269.054C251.588 265.827 247.964 263.533 245.788 260.443C241.78 254.751 243.319 247.47 240.759 241.228C237.627 233.593 227.798 228.267 218.141 228.976C219.063 232.605 219.69 236.304 220.013 240.035C220.301 243.371 219.596 247.091 220.372 250.327C221.593 255.539 228.149 258.696 228.953 264.038C229.662 268.758 225.321 273.178 226.034 277.986C226.802 283.14 233.019 285.989 235.317 290.559C237.185 294.266 236.309 298.519 237.277 302.456C238.49 307.377 242.789 311.701 248.377 313.606Z" stroke="black" stroke-width="2" stroke-miterlimit="10"/>
<path d="M224.037 234.956C238.428 253.654 245.2 293.057 247.864 313.398C248.09 315.162 248.281 316.78 248.452 318.227" stroke="black" stroke-width="2" stroke-miterlimit="10"/>
<path d="M245.779 260.443C245.779 260.443 246.768 244.201 255.074 239.264C263.381 234.327 263.206 261.995 263.206 261.995" stroke="black" stroke-width="2" stroke-miterlimit="10"/>
<path d="M254.845 273.253C254.845 273.253 253.148 263.963 256.125 254.826" stroke="black" stroke-width="2" stroke-miterlimit="10"/>
</svg>
