<svg width="301" height="381" viewBox="0 0 301 381" fill="none" xmlns="http://www.w3.org/2000/svg">
<path d="M210.883 182.862C182.873 199.542 148.704 179.889 150.31 179.547C203.261 168.034 207.939 134.628 207.939 134.628C197.368 108.799 168.554 117.114 168.554 117.114C167.72 153.768 124.093 155.832 124.093 155.832C121.291 143.939 121.445 116.171 121.445 116.171C108.222 106.926 105.545 110.85 105.545 110.85C109.715 74.1544 126.508 62.3241 126.508 62.3241C129.306 59.7179 141.811 53.859 148.233 53.1001L148.463 54.1176C148.463 54.1176 141.97 70.3305 154.413 71.3981C164.884 72.3155 170.835 59.426 172.457 55.3352C186.072 59.5553 199.066 69.0003 207.71 84.888C228.16 122.476 210.883 182.862 210.883 182.862Z" fill="#2E2E2E"/>
<path d="M213.911 167.045L281.969 212.081C295.167 220.813 293.47 240.688 278.996 247.055L199.349 282.108C191.942 285.368 183.821 286.665 175.767 285.877C167.713 285.089 159.997 282.242 153.362 277.609L122.775 256.225" stroke="black" stroke-width="4.21" stroke-miterlimit="10"/>
<path d="M213.912 181.569L211.622 180.051L281.983 226.596C295.181 235.328 293.484 255.203 279.009 261.57L199.362 296.623C191.955 299.882 183.834 301.18 175.78 300.392C167.726 299.604 160.011 296.757 153.376 292.124L114.486 264.427" stroke="black" stroke-width="4.21" stroke-miterlimit="10"/>
<path d="M273.138 244.569L199.934 276.791C193.126 279.785 185.663 280.978 178.261 280.253C170.859 279.528 163.769 276.912 157.671 272.654L129.619 252.947C133.481 249.987 137.809 247.69 142.425 246.15C153.989 242.222 165.273 237.517 176.202 232.068C184.498 227.964 191.786 222.078 197.544 214.831C203.302 207.584 207.389 199.155 209.512 190.147C210.98 183.912 212.269 177.607 213.324 171.269L277.75 213.857C289.876 221.88 286.436 238.723 273.138 244.569Z" fill="#F47960"/>
<path d="M84.5076 337.953C84.5076 337.953 97.3429 332.632 99.8032 328.62C99.8032 328.62 100.266 337.727 97.8641 340.838C95.4622 343.949 81.1091 352.172 80.3376 351.142C79.5662 350.112 84.5076 337.953 84.5076 337.953Z" fill="#F47960"/>
<path d="M44.9967 359.654C44.9967 359.654 47.3319 362.823 55.6177 359.654C63.9035 356.485 81.9304 344.813 81.9304 344.813C81.9304 344.813 76.9014 358.315 75.0791 359.8C73.2568 361.284 38.8293 378.148 38.8293 378.148C38.8293 378.148 23.4378 380.337 29.2383 369.391L44.9967 359.654Z" fill="#F47960"/>
<path d="M94.5453 183.229C75.5718 190.614 55.4932 207.965 61.2687 256.016L62.8741 268.501" stroke="black" stroke-width="4.21" stroke-miterlimit="10"/>
<path d="M94.5156 151.849C97.6181 147.42 100.42 142.633 102.138 137.479C103.856 132.325 103.944 126.741 104.424 121.32C105.7 106.784 107.676 94.7617 113.285 81.2217C118.143 69.504 132.817 54.4086 147.416 52.9783L148.73 52.8657" stroke="black" stroke-width="4.21" stroke-miterlimit="10"/>
<path d="M131.211 182.165C131.14 181.961 131.069 181.769 130.994 181.569" stroke="black" stroke-width="4.21" stroke-miterlimit="10"/>
<path d="M124.093 154.931C123.376 150.715 122.842 146.629 122.425 142.75C122.427 142.677 122.418 142.604 122.4 142.534C120.215 120.879 122.425 105.125 122.425 105.125" stroke="black" stroke-width="4.21" stroke-miterlimit="10"/>
<path d="M175.096 23.5019L171.76 24.8032C171.76 24.9074 171.76 26.2085 171.618 28.0308C171.463 30.2071 171.117 32.3655 170.584 34.4818C170.88 33.0389 171.31 29.6112 169.425 27.226C169.396 27.1772 169.363 27.1309 169.325 27.0883C168.074 25.583 166.531 26.1793 165.293 27.2134C164.437 27.9369 163.69 28.7797 163.074 29.7154C163.29 26.9295 162.791 24.1347 161.623 21.5962C160.862 19.8646 159.852 18.2533 158.625 16.8133C160.514 23.3185 158.091 27.5762 158.091 27.5762C151.69 29.0816 147.249 28.7605 143.938 28.1892C141.148 25.5871 142.116 16.2169 142.116 16.2169C139.309 18.5104 139.985 27.3844 139.985 27.3844C139.627 25.0688 139.67 22.7085 140.114 20.4078C138.72 22.3792 137.915 24.706 137.791 27.1175L137.741 27.0925C137.548 27.0429 137.357 26.9828 137.17 26.9132C136.827 26.7322 136.494 26.5316 136.173 26.3127L134.326 25.0617C137.116 10.8293 146.87 1.88048 161.94 4.50758C162.924 4.67714 163.892 4.92821 164.834 5.25818C174.763 10.4332 175.096 23.5019 175.096 23.5019Z" fill="#F47960"/>
<path d="M89.0944 162.111L85.2955 150.677C85.2113 150.411 85.0608 150.171 84.8581 149.979C84.655 149.787 84.4069 149.65 84.1363 149.581C84.1029 149.581 84.0654 149.581 84.0279 149.556C83.9903 149.531 83.982 149.556 83.957 149.556C83.8694 149.55 83.7818 149.55 83.6943 149.556C83.2727 149.557 82.8678 149.718 82.56 150.006C82.2514 150.291 82.0054 150.636 81.8365 151.021C81.6681 151.406 81.5805 151.821 81.5801 152.241C81.5805 152.57 81.6326 152.896 81.7344 153.208C82.5684 155.623 84.0529 159.981 84.7576 161.965" fill="#F47960"/>
<path d="M88.236 162.112L84.1411 149.581C84.1077 149.581 84.0702 149.581 84.0326 149.556C83.9951 149.531 83.9868 149.556 83.9618 149.556L81.8142 149.139C80.6675 148.927 79.5207 148.697 78.374 148.485C76.9979 148.209 75.6134 147.98 74.2415 147.651C73.9175 147.559 73.5847 147.503 73.249 147.484C72.8262 147.483 72.4196 147.646 72.1148 147.938C71.8037 148.223 71.5556 148.57 71.3867 148.956C71.2178 149.342 71.1323 149.76 71.1348 150.182C71.1327 150.507 71.1849 150.829 71.2891 151.137C72.2107 153.839 73.9663 158.951 74.525 160.503L88.236 162.112Z" fill="#F47960"/>
<path d="M169.201 105.12C168.784 109.761 168.567 115.378 168.421 122.438C168.421 137.45 151.825 149.881 137.075 152.725L110.029 158.834C106.455 159.526 103.29 157.295 100.805 155.815C98.2486 154.293 95.6298 152.479 93.7867 151.132C91.1345 149.193 86.0263 150.752 87.073 155.377C87.2986 156.256 87.7243 157.071 88.3165 157.76C88.909 158.447 89.6521 158.989 90.4882 159.342C90.959 159.554 91.444 159.732 91.9394 159.876C92.1241 159.922 92.288 160.028 92.406 160.178C92.5244 160.327 92.5899 160.51 92.5928 160.701C92.5957 160.891 92.5357 161.077 92.4218 161.229C92.3084 161.382 92.1474 161.492 91.9644 161.544C89.6208 162.353 85.3299 162.833 78.4077 160.293C69.5381 157.028 68.8501 177.269 80.9764 180.793H81.0223C92.1937 184.171 104.216 183.737 115.763 183.253C128.874 182.757 141.922 181.165 154.769 178.495C161.303 177.111 168.017 175.672 173.997 172.716C184.297 167.624 191.719 161.786 198.779 152.7C206.702 142.512 210.084 129.147 211.994 116.617C214.179 102.28 211.16 90.1746 203.474 77.8356L203.191 77.3853" stroke="black" stroke-width="4.21" stroke-miterlimit="10"/>
<path d="M89.0944 162.111L85.2955 150.677C85.2113 150.411 85.0608 150.171 84.8581 149.979C84.655 149.787 84.4069 149.65 84.1363 149.581C84.1029 149.581 84.0654 149.581 84.0279 149.556C83.9903 149.531 83.982 149.556 83.957 149.556C83.8694 149.55 83.7818 149.55 83.6943 149.556C83.2727 149.557 82.8678 149.718 82.56 150.006C82.2514 150.291 82.0054 150.636 81.8365 151.021C81.6681 151.406 81.5805 151.821 81.5801 152.241C81.5805 152.57 81.6326 152.896 81.7344 153.208C82.5684 155.623 84.0529 159.981 84.7576 161.965" stroke="black" stroke-width="4.21" stroke-miterlimit="10"/>
<path d="M84.1411 149.581C84.1077 149.581 84.0702 149.581 84.0326 149.556C83.9951 149.531 83.9868 149.556 83.9618 149.556L81.8142 149.139C80.6675 148.927 79.5207 148.697 78.374 148.485C76.9979 148.209 75.6134 147.98 74.2415 147.651C73.9175 147.559 73.5847 147.503 73.249 147.484C72.8262 147.483 72.4196 147.646 72.1148 147.938C71.8037 148.223 71.5556 148.57 71.3867 148.956C71.2178 149.342 71.1323 149.76 71.1348 150.182C71.1327 150.507 71.1849 150.829 71.2891 151.137C72.2107 153.839 73.9663 158.951 74.525 160.503" stroke="black" stroke-width="4.21" stroke-miterlimit="10"/>
<path d="M136.494 26.707C136.494 32.128 137.549 37.3113 140.151 42.0985C142.236 45.9432 145.297 49.8172 149.676 51.089C150.646 51.3688 151.651 51.5094 152.661 51.506C160.092 51.4727 161.251 42.6698 161.251 42.6698" stroke="black" stroke-width="4.21" stroke-miterlimit="10"/>
<path d="M171.368 29.8525V29.8776C171.024 32.5672 170.432 35.2197 169.6 37.8006C168.606 40.8793 168.371 44.1527 168.916 47.3415L170.071 54.0594C170.124 54.3588 170.26 54.6374 170.463 54.863C170.667 55.0885 170.93 55.2524 171.222 55.3354C185.884 59.593 198.898 68.988 206.471 82.553C215.916 99.4915 217.638 119.891 216.875 138.906C216.204 155.39 213.539 171.779 209.757 187.82C207.445 197.625 202.997 206.798 196.73 214.685C190.463 222.572 182.532 228.977 173.503 233.444C161.622 239.377 149.352 244.497 136.778 248.769C130.122 250.973 124.04 254.633 118.976 259.483C113.911 264.332 109.991 270.25 107.5 276.804L77.9516 355.375C76.8658 358.276 74.724 360.659 71.9552 362.047L43.6409 376.271C40.0655 378.061 35.9868 378.578 32.0775 377.739C31.0642 377.52 30.1397 377.001 29.4253 376.25C28.7106 375.498 28.239 374.549 28.0718 373.526C27.9041 372.503 28.0488 371.453 28.4867 370.513C28.9245 369.573 29.6351 368.787 30.5262 368.256L44.9878 359.654L64.8745 258.273C66.274 249.228 69.6158 240.594 74.6698 232.963C79.7235 225.333 86.37 218.888 94.1521 214.071C95.1896 213.438 96.2709 212.881 97.388 212.403L140.497 193.684" stroke="black" stroke-width="4.21" stroke-miterlimit="10"/>
<path d="M159.518 3.52744C157.213 2.97817 154.828 2.85661 152.479 3.16882C152.383 3.17095 152.287 3.17933 152.191 3.19384" stroke="black" stroke-width="4.21" stroke-miterlimit="10"/>
<path d="M149.077 53.1113C149.077 53.1113 141.45 70.5961 155.09 71.4593C167.329 72.2433 171.82 55.6133 171.82 55.6133" stroke="black" stroke-width="4.21" stroke-miterlimit="10"/>
<path d="M170.409 35.1179C170.497 34.7968 171.81 30.0555 169.3 27.0698C166.79 24.0841 163.387 29.2048 163.045 29.7177C163.712 22.3662 158.604 16.7909 158.604 16.7909C160.489 23.3003 158.062 27.5535 158.062 27.5535C148.734 29.7386 143.6 28.0748 139.96 27.3575C139.602 25.0432 139.647 22.6844 140.093 20.3855C138.696 22.3518 137.889 24.677 137.771 27.0865H137.712C136.327 26.7183 135.013 26.119 133.826 25.3142L131.979 24.0632C134.772 9.83538 144.522 0.878222 159.592 3.50532C174.663 6.13242 175.084 23.4629 175.084 23.4629L171.727 24.7679C171.727 24.7679 171.756 30.4892 170.409 35.1179Z" stroke="black" stroke-width="4.21" stroke-miterlimit="10"/>
<path d="M142.342 34.376V41.294C142.342 41.3782 142.363 41.4612 142.401 41.5359C142.44 41.6109 142.495 41.6756 142.564 41.7252C142.632 41.7748 142.71 41.8073 142.794 41.8211C142.877 41.8344 142.962 41.8282 143.042 41.8027C143.587 41.6226 144.087 41.3299 144.51 40.9437" stroke="black" stroke-width="4.21" stroke-miterlimit="10"/>
<path d="M138.204 39.6282C140.386 38.7775 141.196 35.6283 140.013 32.5942C138.83 29.5601 136.102 27.7904 133.92 28.6411C131.738 29.4917 130.928 32.6409 132.11 35.675C133.293 38.7091 136.021 40.4788 138.204 39.6282Z" stroke="black" stroke-width="4.21" stroke-miterlimit="10"/>
<path d="M151.336 41.6072C153.518 40.7565 154.329 37.6073 153.146 34.5732C151.963 31.5391 149.235 29.7694 147.053 30.6201C144.87 31.4707 144.06 34.6199 145.243 37.654C146.426 40.6881 149.154 42.4579 151.336 41.6072Z" stroke="black" stroke-width="4.21" stroke-miterlimit="10"/>
<path d="M140.506 34.7347C140.506 34.7347 141.799 33.2585 144.509 34.9891" stroke="black" stroke-width="4.21" stroke-miterlimit="10"/>
<path d="M148.463 50.6519C148.463 50.6519 149.401 53.8294 152.162 64.1293" stroke="black" stroke-width="4.21" stroke-miterlimit="10"/>
<path d="M79.3496 351.663L95.6126 342.885C96.5446 342.38 97.339 341.654 97.927 340.773C98.5149 339.89 98.8786 338.878 98.9861 337.823C101.688 311.281 100.863 294.501 100.863 294.501" stroke="black" stroke-width="4.21" stroke-miterlimit="10"/>
<path d="M64.5875 215.546L2 171.807" stroke="black" stroke-width="4.21" stroke-miterlimit="10"/>
<path d="M61.043 227.598L2 186.332" stroke="black" stroke-width="4.21" stroke-miterlimit="10"/>
<path d="M300.455 144.461V180.269C300.455 181.911 299.978 183.517 299.082 184.894C298.186 186.27 296.91 187.356 295.409 188.021L250.999 207.687L237.421 228.32C237.072 228.832 236.569 229.219 235.985 229.425C235.401 229.632 234.766 229.648 234.172 229.47C233.579 229.292 233.058 228.93 232.684 228.436C232.31 227.942 232.102 227.342 232.092 226.723V216.064L227.538 218.078C226.525 218.521 225.418 218.706 224.317 218.615C223.215 218.524 222.153 218.161 221.227 217.558C220.3 216.955 219.538 216.131 219.008 215.161C218.479 214.191 218.199 213.104 218.193 211.999V182.095C218.194 178.366 219.285 174.717 221.332 171.6C223.379 168.482 226.293 166.031 229.715 164.548L290.747 138.089C291.804 137.631 292.958 137.442 294.106 137.541C295.253 137.639 296.359 138.021 297.322 138.654C298.284 139.286 299.075 140.148 299.622 141.162C300.169 142.175 300.455 143.309 300.455 144.461Z" fill="#D7E8F0"/>
<path d="M245.976 191.263C248.164 187.043 247.572 182.396 244.654 180.883C241.736 179.371 237.598 181.566 235.41 185.786C233.223 190.007 233.815 194.654 236.732 196.166C239.65 197.678 243.789 195.483 245.976 191.263Z" fill="white"/>
<path d="M264.943 183.145C267.13 178.924 266.539 174.277 263.621 172.765C260.703 171.252 256.564 173.447 254.377 177.667C252.189 181.888 252.781 186.535 255.699 188.047C258.617 189.56 262.756 187.365 264.943 183.145Z" fill="white"/>
<path d="M283.273 174.378C285.461 170.158 284.869 165.51 281.951 163.998C279.033 162.486 274.895 164.681 272.707 168.901C270.519 173.121 271.112 177.768 274.029 179.281C276.947 180.793 281.085 178.598 283.273 174.378Z" fill="white"/>
</svg>
