<svg width="382" height="289" viewBox="0 0 382 289" fill="none" xmlns="http://www.w3.org/2000/svg">
<path d="M260.603 258.135L252.343 265.912C252.129 266.115 251.957 266.359 251.84 266.63C251.723 266.901 251.663 267.193 251.662 267.489V279.878C251.662 280.416 251.863 280.936 252.226 281.335C252.59 281.733 253.089 281.983 253.627 282.034L269.883 283.61L278.845 275.17C279.061 274.968 279.234 274.724 279.352 274.452C279.47 274.181 279.53 273.889 279.53 273.593V261.129C279.531 260.588 279.328 260.068 278.963 259.668C278.598 259.268 278.097 259.019 277.557 258.969L262.296 257.556C261.989 257.527 261.679 257.564 261.387 257.664C261.096 257.764 260.828 257.925 260.603 258.135Z" fill="#F47960"/>
<path d="M259.738 255.974L250.044 265.102C249.792 265.34 249.591 265.627 249.454 265.946C249.316 266.264 249.246 266.607 249.246 266.954V281.49C249.245 282.122 249.481 282.732 249.907 283.2C250.333 283.668 250.918 283.961 251.549 284.021L270.627 285.873L281.148 275.965C281.4 275.727 281.601 275.44 281.739 275.121C281.876 274.803 281.947 274.46 281.946 274.114V259.485C281.946 258.851 281.708 258.24 281.28 257.772C280.851 257.304 280.263 257.012 279.631 256.954L261.723 255.286C261.362 255.253 260.999 255.297 260.656 255.416C260.314 255.535 260.001 255.725 259.738 255.974Z" fill="#F47960"/>
<path d="M310.655 175.21V187.67C310.654 187.965 310.594 188.257 310.476 188.528C310.359 188.799 310.188 189.043 309.974 189.246L301.003 197.686L284.739 196.11C284.269 196.068 283.827 195.868 283.485 195.543C286.173 195.218 288.434 193.971 289.128 192.624C290.194 190.539 289.91 186.903 285.366 186.269C284.486 186.152 283.616 185.973 282.762 185.735V181.561C282.761 181.266 282.821 180.975 282.939 180.704C283.056 180.434 283.227 180.19 283.443 179.989L291.699 172.203C291.923 171.998 292.187 171.841 292.474 171.742C292.762 171.643 293.067 171.604 293.371 171.628L308.632 173.046C309.181 173.083 309.696 173.327 310.072 173.729C310.448 174.131 310.656 174.66 310.655 175.21Z" fill="#F47960"/>
<path d="M313.076 173.567V188.191C313.075 188.539 313.003 188.884 312.864 189.204C312.725 189.524 312.523 189.812 312.269 190.051L301.756 199.95L282.679 198.103C282.047 198.042 281.462 197.748 281.036 197.279C280.61 196.811 280.375 196.2 280.375 195.568V195.509C281.413 195.674 282.47 195.686 283.51 195.543C286.198 195.217 288.459 193.97 289.153 192.624C290.219 190.539 289.935 186.902 285.391 186.268C284.512 186.151 283.642 185.973 282.787 185.735C280.747 185.113 280.622 184.434 280.622 184.434L280.371 184.592V181.048C280.368 180.702 280.438 180.359 280.574 180.041C280.711 179.723 280.912 179.437 281.165 179.2L290.863 170.068C291.126 169.82 291.44 169.631 291.782 169.512C292.124 169.393 292.488 169.348 292.848 169.38L310.756 171.048C311.386 171.108 311.972 171.398 312.4 171.863C312.828 172.328 313.069 172.935 313.076 173.567Z" fill="#F47960"/>
<path d="M313.676 212.961L303.916 222.135C303.662 222.375 303.459 222.663 303.32 222.984C303.181 223.305 303.109 223.65 303.109 223.999V238.64C303.109 239.277 303.346 239.892 303.775 240.363C304.204 240.835 304.793 241.131 305.429 241.192L324.657 243.056L335.254 233.081C335.508 232.842 335.711 232.553 335.85 232.232C335.988 231.912 336.06 231.566 336.06 231.217V216.497C336.061 215.858 335.822 215.242 335.39 214.77C334.959 214.298 334.366 214.004 333.728 213.945L315.695 212.277C315.329 212.24 314.96 212.282 314.611 212.4C314.263 212.518 313.944 212.71 313.676 212.961Z" fill="#F47960"/>
<path d="M312.654 210.409L301.197 221.197C300.899 221.478 300.661 221.816 300.499 222.192C300.336 222.568 300.252 222.972 300.252 223.382V240.562C300.252 241.309 300.532 242.03 301.036 242.583C301.539 243.137 302.232 243.484 302.977 243.556L325.524 245.741L337.956 234.032C338.255 233.752 338.493 233.413 338.656 233.037C338.818 232.661 338.901 232.256 338.9 231.847V214.558C338.895 213.81 338.611 213.092 338.103 212.542C337.595 211.992 336.9 211.651 336.154 211.585L314.991 209.621C314.568 209.581 314.141 209.631 313.738 209.766C313.336 209.902 312.966 210.121 312.654 210.409Z" fill="#F47960"/>
<path d="M340.136 221.901L329.979 231.467C329.714 231.717 329.504 232.017 329.36 232.351C329.217 232.684 329.143 233.043 329.143 233.406V248.639C329.143 249.302 329.39 249.941 329.836 250.433C330.283 250.924 330.897 251.231 331.559 251.295L351.552 253.235L362.574 242.86C362.838 242.61 363.049 242.31 363.192 241.976C363.336 241.642 363.41 241.283 363.41 240.921V225.579C363.409 224.914 363.159 224.274 362.71 223.783C362.262 223.291 361.645 222.985 360.982 222.923L342.218 221.176C341.839 221.141 341.457 221.188 341.098 221.313C340.739 221.438 340.411 221.639 340.136 221.901Z" fill="#F47960"/>
<path d="M339.079 219.246L327.158 230.472C326.847 230.765 326.6 231.118 326.432 231.509C326.263 231.9 326.176 232.322 326.176 232.749V250.63C326.175 251.406 326.465 252.155 326.988 252.73C327.511 253.305 328.231 253.666 329.006 253.74L352.455 256.017L365.413 243.832C365.724 243.54 365.971 243.187 366.14 242.795C366.309 242.403 366.396 241.982 366.396 241.556V223.562C366.395 222.783 366.103 222.031 365.576 221.455C365.05 220.879 364.327 220.52 363.549 220.447L341.525 218.404C341.08 218.363 340.633 218.417 340.211 218.562C339.79 218.707 339.404 218.941 339.079 219.246Z" fill="#F47960"/>
<path d="M310.801 232.956L296.559 246.366C296.188 246.715 295.892 247.137 295.689 247.604C295.488 248.072 295.384 248.576 295.385 249.085V270.444C295.388 271.371 295.736 272.264 296.36 272.951C296.984 273.638 297.842 274.07 298.766 274.164L326.797 276.882L342.263 262.325C342.634 261.975 342.929 261.553 343.131 261.086C343.333 260.619 343.437 260.115 343.438 259.606V238.114C343.434 237.184 343.084 236.287 342.455 235.6C341.826 234.913 340.964 234.483 340.036 234.394L313.727 231.951C313.195 231.901 312.66 231.966 312.155 232.139C311.651 232.313 311.189 232.591 310.801 232.956Z" fill="#F47960"/>
<path d="M309.308 229.233L292.588 244.971C292.153 245.381 291.806 245.875 291.568 246.424C291.331 246.972 291.209 247.564 291.209 248.161V273.227C291.208 274.317 291.614 275.368 292.348 276.175C293.083 276.983 294.092 277.488 295.18 277.593L328.072 280.783L346.214 263.686C346.649 263.276 346.996 262.781 347.234 262.233C347.471 261.684 347.593 261.093 347.593 260.496V235.288C347.593 234.195 347.185 233.142 346.447 232.334C345.71 231.527 344.696 231.023 343.605 230.922L312.744 228.057C312.121 227.998 311.492 228.071 310.899 228.274C310.306 228.477 309.764 228.804 309.308 229.233Z" fill="#F47960"/>
<path d="M210.336 49.1585C222.04 40.3014 239.767 32.3492 263.485 36.4733" stroke="#CCDDE2" stroke-width="4.59" stroke-miterlimit="10"/>
<path d="M216.279 56.081C226.696 48.8627 240.883 43.3208 259.383 44.5092" stroke="white" stroke-width="4.59" stroke-linecap="round" stroke-linejoin="round"/>
<path d="M298.031 52.3447C309.468 62.8823 315.479 77.7359 317.677 92.873C319.134 102.941 319.147 113.164 317.715 123.235C317.606 123.826 317.532 124.424 317.493 125.024C318.234 124.691 318.999 124.419 319.784 124.211C329.239 121.788 339.296 121.396 348.446 125.124C356.058 128.222 362.537 133.656 367.486 140.136C374.103 148.853 378.105 159.264 379.027 170.16C380.699 191.01 370.705 207.823 355.715 219.683L355.544 219.82" stroke="#CCDDE2" stroke-width="4.59" stroke-linejoin="round"/>
<path d="M296.205 62.3784C311.027 79.7548 311.968 103.119 310.66 125.387C310.63 125.875 310.446 127.168 310.275 128.481" stroke="white" stroke-width="4.59" stroke-linecap="round" stroke-linejoin="round"/>
<path d="M316.311 130.996C327.245 129.911 339.384 129.59 348.685 135.011C357.881 140.374 364.727 149.043 368.669 158.86C373.146 170.002 373.865 183.046 368.861 194.146C363.248 206.573 353.951 215.467 343.43 223.795C343.401 223.816 344.684 224.099 346.022 224.399" stroke="white" stroke-width="4.59" stroke-linecap="round" stroke-linejoin="round"/>
<path d="M126.024 259.091C123.682 259.932 121.231 260.428 118.746 260.563C83.4546 262.727 50.3364 243.466 27.012 221.903C25.9461 220.918 24.922 219.909 23.9355 218.888" stroke="black" stroke-width="4.59" stroke-miterlimit="10"/>
<path d="M159.975 245.258C162.014 248.369 166.801 247.126 166.801 247.126C193.494 241.663 185.707 206.406 163.126 190.043" stroke="black" stroke-width="4.59" stroke-miterlimit="10"/>
<path d="M191.065 161.128C181.388 170.386 172.748 176.003 164.652 179.33L167.996 156.008C131.525 134.248 121.819 158.51 121.819 158.51C120.423 160.786 119.775 187.8 119.591 197.019C119.545 197.019 118.387 197.019 118.337 197.019C95.3471 195.793 74.5684 174.814 74.5684 174.814C86.1846 145.716 127.654 109.762 127.654 109.762C156.438 89.6253 178.408 96.3973 178.408 96.3973C171.641 96.8852 180.862 115.579 180.862 115.579C194.451 127.351 199.467 109.771 199.467 109.771C212.617 141.171 191.065 161.128 191.065 161.128Z" fill="#353642"/>
<path d="M214.845 147.546C214.845 147.546 212.458 178.137 191.713 177.124C191.713 177.124 183.934 168.73 184.131 162.345C184.327 155.961 201.687 116.092 201.687 116.092C201.687 116.092 212.939 144.089 214.845 147.546Z" fill="#353642"/>
<path d="M25.8415 220.689V220.793L27.6139 222.461C27.6139 222.461 26.8782 223.141 25.8415 224.129C24.4914 225.38 22.6313 227.106 21.2435 228.424C18.84 230.701 6.55083 242.956 3.26953 231.81C3.91743 227.911 6.40035 219.892 15.9182 210.151C29.4531 196.273 27.5679 197.995 30.9662 198.225C32.5337 198.325 34.5652 199.242 36.3041 200.206C31.9067 202.032 25.2396 207.099 25.8415 220.689Z" fill="#F47960"/>
<path d="M39.9783 202.511C39.9783 202.511 26.6733 203.762 25.8415 220.688V220.792C25.7872 221.835 25.7872 222.931 25.8415 224.099C24.4914 225.35 22.6313 227.076 21.2435 228.394C18.84 230.671 6.55083 242.927 3.26953 231.78C3.91743 227.881 6.40035 219.862 15.9182 210.121C29.4531 196.243 27.5679 197.966 30.9662 198.195C32.5337 198.295 34.5652 199.213 36.3041 200.176C37.5681 200.891 38.7945 201.67 39.9783 202.511Z" fill="#F47960"/>
<path d="M164.564 180.035C179.612 170.623 203.756 158.572 203.698 131.517C203.698 125.091 203.033 119.841 201.608 114.87L201.47 114.395C200.972 112.786 200.301 111.235 199.467 109.771" stroke="black" stroke-width="4.59" stroke-miterlimit="10"/>
<path d="M91.9775 226.867C88.4955 223.911 85.3522 221.058 83.2622 219.09L83.2287 219.057C81.5818 217.526 80.5953 216.555 80.5953 216.555C79.195 214.649 77.9494 212.802 76.8333 211.025C76.8116 210.999 76.7957 210.967 76.7874 210.934C68.6698 197.84 68.1807 187.406 75.7424 172.057C75.7862 171.946 75.8364 171.837 75.8928 171.731C76.7288 170.063 77.6526 168.32 78.6725 166.519C93.8083 139.831 138.217 90.1036 176.526 96.392" stroke="black" stroke-width="4.59" stroke-miterlimit="10"/>
<path d="M27.0253 221.89C19.0833 231.723 13.5114 235.213 9.74522 235.984C5.97904 236.756 2.50964 233.424 3.05722 229.571C4.80446 217.394 19.0081 202.829 25.9971 196.315C27.0676 195.311 28.4411 194.688 29.9037 194.545C31.3663 194.401 32.8351 194.745 34.0812 195.523L37.5798 197.695C47.917 204.126 58.7056 210.397 69.5527 216.177C79.4969 221.481 90.4234 228.299 102.194 226.756" stroke="black" stroke-width="4.59" stroke-miterlimit="10"/>
<path d="M169.48 130.57C169.615 135.41 169.491 140.254 169.108 145.081C167.783 162.55 164.205 179.78 162.236 197.177C160.982 208.311 160.213 219.495 160.063 230.7C159.937 240.107 159.912 247.284 160.192 256.691C160.372 262.746 163.804 266.612 169.029 269.201C173.43 271.378 176.498 270.936 179.24 275.327C184.879 284.376 173.806 285.018 169.3 283.826C156.66 280.49 138.063 278.659 130.844 266.12C125.088 256.112 124.357 249.569 122.902 238.385C121.314 226.267 119.976 214.099 119.692 201.873C119.253 182.186 120.783 150.519 127.856 131.9" stroke="black" stroke-width="4.59" stroke-miterlimit="10"/>
<path d="M327.375 223.941L327.308 224.008L325.74 223.85L325.799 223.795L327.375 223.941Z" fill="#F47960"/>
<path d="M302.508 221.81L315.386 223.082L302.508 221.914V221.81Z" fill="#F47960"/>
<path d="M327.374 223.94L327.307 224.007L325.74 223.849L325.569 224.007L324.82 223.94L324.992 223.782L325.046 223.724L325.798 223.795L327.374 223.94Z" fill="#F47960"/>
<path d="M327.375 223.94L327.308 224.007L325.74 223.849L324.992 223.782L325.047 223.724L325.799 223.795L327.375 223.94Z" fill="#F47960"/>
<path d="M294.49 246.25L313.53 248.106L294.49 246.4V246.25Z" fill="#F47960"/>
<path d="M331.267 249.37L331.167 249.47L328.847 249.237L328.596 249.47L327.488 249.37L327.739 249.137L327.823 249.053L328.935 249.153L331.267 249.37Z" fill="#F47960"/>
<path d="M331.266 249.37L331.166 249.47L328.846 249.237L327.738 249.137L327.822 249.053L328.934 249.153L331.266 249.37Z" fill="#F47960"/>
<path d="M201.461 114.392C201.461 114.392 213.758 155.316 228.142 164.849C241.693 173.827 259.889 169.932 274.18 165.028C278.126 163.673 282.093 162.351 286.302 162.413C292.225 162.497 304.297 163.806 305.865 170.682" stroke="black" stroke-width="4.59" stroke-miterlimit="10"/>
<path d="M185.297 166.319C206.519 209.191 244.147 200.638 263.517 192.891C265.272 192.178 267.175 191.906 269.06 192.098C270.933 192.303 272.404 193.095 274.147 193.766C277.111 194.934 280.459 195.772 283.673 195.555C286.888 195.338 290.804 192.895 289.45 189.113C288.372 186.098 285.011 186.314 282.436 185.735C279.861 185.155 279.242 181.411 281.65 180.197C281.68 180.188 281.707 180.172 281.729 180.151" stroke="black" stroke-width="4.59" stroke-miterlimit="10"/>
<path d="M281.946 257.175L270.627 267.846L249.246 265.861L260.578 255.194L281.946 257.175Z" stroke="black" stroke-width="4.59" stroke-linecap="square" stroke-linejoin="round"/>
<path d="M270.627 267.847V285.878L249.246 283.805V265.862L270.627 267.847Z" stroke="black" stroke-width="4.59" stroke-linecap="square" stroke-linejoin="round"/>
<path d="M281.946 257.175V275.218L270.627 285.877V267.846L281.946 257.175Z" stroke="black" stroke-width="4.59" stroke-linecap="square" stroke-linejoin="round"/>
<path d="M347.769 231.464L328.399 249.724L291.824 246.326L300.385 238.261V242.81L325.569 245.258L338.899 232.698V230.634L347.769 231.464Z" stroke="black" stroke-width="4.59" stroke-linecap="square" stroke-linejoin="round"/>
<path d="M328.399 249.72V280.565L291.824 277.021V246.33L328.399 249.72Z" stroke="black" stroke-width="4.59" stroke-linecap="square" stroke-linejoin="round"/>
<path d="M347.764 231.468V262.334L328.398 280.565V249.72L347.764 231.468Z" stroke="black" stroke-width="4.59" stroke-linecap="square" stroke-linejoin="round"/>
<path d="M338.899 211.447L325.569 224.008L300.385 221.677L313.727 209.112L338.899 211.447Z" stroke="black" stroke-width="4.59" stroke-linecap="square" stroke-linejoin="round"/>
<path d="M325.569 228.619V224.007L300.385 221.676V241.066" stroke="black" stroke-width="4.59" stroke-linecap="square" stroke-linejoin="round"/>
<path d="M338.898 211.448V232.699L325.568 245.259V224.008L338.898 211.448Z" stroke="black" stroke-width="4.59" stroke-linecap="square" stroke-linejoin="round"/>
<path d="M339.271 218.929L339.844 218.391L366.446 220.859L352.355 234.149L348.405 233.778" stroke="black" stroke-width="4.59" stroke-linecap="square" stroke-linejoin="round"/>
<path d="M348.171 233.753L352.355 234.149V256.588L347.77 256.146" stroke="black" stroke-width="4.59" stroke-linecap="square" stroke-linejoin="round"/>
<path d="M366.44 220.858V243.318L352.35 256.587V234.14L366.44 220.858Z" stroke="black" stroke-width="4.59" stroke-linecap="square" stroke-linejoin="round"/>
<path d="M313.071 171.344L301.752 182.015L280.371 180.03L291.703 169.359L313.071 171.344Z" stroke="black" stroke-width="4.59" stroke-linecap="square" stroke-linejoin="round"/>
<path d="M280.367 195.451V197.978L301.748 200.051V182.02L281.73 180.16L280.367 180.035V181.598V183.221" stroke="black" stroke-width="4.59" stroke-linecap="square" stroke-linejoin="round"/>
<path d="M313.071 171.345V189.388L301.752 200.047V182.016L313.071 171.345Z" stroke="black" stroke-width="4.59" stroke-linecap="square" stroke-linejoin="round"/>
<path d="M203.697 94.0283C205.641 96.6262 209.052 97.1433 211.313 95.3544" stroke="black" stroke-width="4.59" stroke-miterlimit="10"/>
<path d="M234.601 68.1376C233.763 70.2167 232.291 71.9798 230.393 73.1774C228.495 74.3746 226.267 74.9459 224.025 74.8096C223.976 73.8955 223.705 73.0069 223.235 72.22C221.225 68.9507 219.335 74.2257 212.054 69.1258C201.967 62.0368 197.348 64.5388 197.348 64.5388C196.93 64.7557 196.6 67.266 196.487 67.7039C195.798 70.2476 195.112 72.7788 194.397 75.3183C193.979 76.8695 193.561 78.4083 193.143 79.947C193.036 79.6622 192.912 79.3836 192.771 79.113C192.311 75.4476 191.179 71.0357 187.066 72.2367C186.232 72.4956 185.471 72.9468 184.846 73.5544C181.799 76.4984 183.237 80.0054 185.527 82.7868C186.08 83.6266 186.722 84.4039 187.442 85.1053C186.869 85.9393 184.537 89.2753 184.537 89.2753C184.294 89.6089 179.132 81.6192 178.781 80.7768C178.375 78.7915 178.305 76.7515 178.576 74.7428C179.734 66.4862 184.558 57.4081 191.952 53.701C193.791 52.7836 193.432 51.5743 193.783 49.9981C193.794 49.9063 193.835 49.8204 193.9 49.7545C193.965 49.6882 194.05 49.6457 194.142 49.6332C194.234 49.6207 194.327 49.6394 194.408 49.6857C194.488 49.7324 194.55 49.8041 194.585 49.8896C196.341 52.5668 201.558 53.1256 201.558 53.1256C219.469 51.3283 225.033 60.2688 228.502 62.237C229.902 63.0097 231.523 63.2845 233.1 63.0168C233.11 63.5259 233.261 64.0226 233.535 64.4521C233.809 64.8816 234.197 65.2277 234.655 65.4521L234.438 66.2861C234.28 66.9041 234.337 67.5567 234.601 68.1376Z" fill="#F47960"/>
<path d="M224.013 74.8096C226.251 74.9455 228.475 74.3768 230.371 73.1833C232.267 71.9898 233.739 70.2318 234.58 68.1585C234.908 67.3657 235.163 66.5451 235.341 65.7065L235.207 65.669C235.015 65.6223 234.829 65.5505 234.655 65.4563C234.197 65.2315 233.809 64.8854 233.535 64.4559C233.261 64.0264 233.111 63.5302 233.1 63.021C233.086 62.74 233.118 62.4585 233.192 62.187L234.275 58.1922C234.275 58.1922 230.651 60.1104 227.252 58.1505C223.854 56.1906 219.005 47.2751 200.308 49.039C200.308 49.039 196.199 48.6595 194.456 45.9324C194.42 45.8485 194.357 45.7789 194.277 45.7339C194.197 45.6892 194.104 45.6721 194.014 45.6846C193.923 45.6976 193.839 45.7397 193.775 45.8048C193.71 45.8698 193.669 45.954 193.658 46.0449C193.306 47.6212 192.537 48.6554 190.702 49.5728C183.291 53.2841 178.463 62.3621 177.326 70.6146C176.899 74.0602 177.398 77.5576 178.773 80.7477C179.124 81.5817 184.286 89.5797 184.528 89.2461C184.528 89.2461 186.861 85.9101 187.434 85.0761L187.572 84.8927L187.392 84.73C186.724 84.1154 186.098 83.4565 185.519 82.7576C183.229 79.9762 181.791 76.4693 184.838 73.5252C185.463 72.9177 186.224 72.4661 187.057 72.2075C191.171 71.0066 192.303 75.4184 192.763 79.0839C192.852 79.7836 192.864 80.4912 192.801 81.1939L193.135 79.9429C193.553 78.4041 193.971 76.8654 194.389 75.3142C195.087 72.7746 195.773 70.2434 196.479 67.6997C196.592 67.2619 196.939 64.7516 197.34 64.5347C197.34 64.5347 201.959 62.0577 212.045 69.1217C219.327 74.2216 221.216 68.9466 223.227 72.2159C223.697 73.0023 223.968 73.891 224.017 74.8054C224.027 75.099 224.019 75.393 223.992 75.6853C223.998 75.7241 223.998 75.7633 223.992 75.8021C223.933 76.4401 223.85 77.0781 223.766 77.6994C222.93 83.6959 221.3 89.8466 218.094 95.0466C214.206 101.347 205.612 106.844 198.214 102.503C195.911 101.147 193.938 99.2208 192.174 97.2275" stroke="black" stroke-width="4.59" stroke-miterlimit="10"/>
<path d="M218.573 87.6299C219.035 86.7325 218.807 85.6963 218.064 85.316C217.32 84.9352 216.343 85.3539 215.881 86.2513C215.42 87.1487 215.648 88.1849 216.392 88.5656C217.135 88.9464 218.112 88.5273 218.573 87.6299Z" fill="black"/>
<path d="M206.912 85.4746C207.373 84.5772 207.145 83.5414 206.401 83.1607C205.658 82.78 204.681 83.1986 204.219 84.096C203.757 84.9934 203.986 86.0296 204.729 86.4104C205.473 86.7911 206.45 86.372 206.912 85.4746Z" fill="black"/>
<path d="M208.896 89.1158C208.896 89.1158 212.462 91.918 213.047 89.6621C213.231 88.9657 215.242 82.1936 215.242 82.1936C215.242 82.1936 218.903 79.3413 223.359 82.5356" stroke="black" stroke-width="4.59" stroke-miterlimit="10"/>
<path d="M211.251 79.601C211.251 79.601 205.433 75.506 200.584 79.4008" stroke="black" stroke-width="4.59" stroke-miterlimit="10"/>
<path d="M183.02 87.3481L180.002 97.0559L176.553 96.4095C174.384 100.021 177.18 111.693 180.879 115.592C191.434 126.75 197.925 113.869 197.925 113.869L199.468 109.758L201.704 103.811" stroke="black" stroke-width="4.59" stroke-miterlimit="10"/>
<path d="M274.436 57.6025C275.222 58.3073 275.852 59.1688 276.284 60.1312C276.716 61.0937 276.941 62.1357 276.944 63.1903V64.383C276.947 65.2261 277.127 66.0593 277.472 66.8287C277.817 67.598 278.32 68.2873 278.947 68.8515C279.575 69.4157 280.315 69.8427 281.118 70.105C281.921 70.3677 282.77 70.4595 283.611 70.3753C286.733 70.0583 289.015 67.2269 289.015 64.0785V63.1862C289.013 62.1395 289.23 61.1041 289.652 60.1462C290.075 59.188 290.694 58.3289 291.469 57.6234" stroke="#CCDDE2" stroke-width="4.59" stroke-linejoin="round"/>
<path d="M274.436 57.6025C275.222 58.3073 275.852 59.1688 276.284 60.1312C276.716 61.0937 276.941 62.1357 276.944 63.1903V64.383C276.947 65.2261 277.127 66.0593 277.472 66.8287C277.817 67.598 278.32 68.2873 278.947 68.8515C279.575 69.4157 280.315 69.8427 281.118 70.105C281.921 70.3677 282.77 70.4595 283.611 70.3753C286.733 70.0583 289.015 67.2269 289.015 64.0785V63.1862C289.013 62.1395 289.23 61.1041 289.652 60.1462C290.075 59.188 290.694 58.3289 291.469 57.6234" stroke="#CCDDE2" stroke-width="4.59" stroke-linejoin="round"/>
<path d="M274.436 57.6039C274.035 57.2561 273.601 56.9487 273.14 56.6865C269.605 54.6623 266.785 51.5961 265.066 47.909C263.347 44.2223 262.815 40.0949 263.54 36.0937C264.266 32.0926 266.216 28.4139 269.121 25.5616C272.026 22.7097 275.745 20.8245 279.767 20.1643C283.789 19.5047 287.916 20.1026 291.584 21.8761C295.252 23.6496 298.28 26.5123 300.252 30.0706C302.224 33.6293 303.044 37.7092 302.599 41.7512C302.155 45.7932 300.468 49.5987 297.768 52.6457C297.726 52.6862 297.689 52.7308 297.656 52.7792C296.229 54.3417 294.567 55.6715 292.727 56.7198C292.274 56.9713 291.853 57.2765 291.473 57.6289" stroke="#CCDDE2" stroke-width="4.59" stroke-linejoin="round"/>
<path d="M280.864 56.32C279.589 54.0098 277.44 50.9491 275.927 48.7682C274.281 46.4551 272.937 43.9426 271.927 41.2914C271.793 41.0053 271.741 40.6875 271.776 40.374C271.797 40.2184 271.877 40.0766 272.001 39.9786C272.124 39.8811 272.28 39.8343 272.437 39.8485C272.717 39.9027 272.855 40.1946 273.001 40.449C273.602 41.6404 274.458 42.6854 275.509 43.5098C276.098 43.9643 276.934 44.3438 277.549 43.9268C277.735 43.7637 277.885 43.5632 277.988 43.338C278.091 43.1132 278.145 42.8689 278.147 42.6216C278.331 40.8656 277.871 39.1021 276.851 37.6593C276.433 37.0922 275.705 36.5417 275.116 36.9129C274.527 37.284 274.698 38.2014 275.049 38.8185C275.673 39.9624 276.524 40.9678 277.551 41.7726C278.577 42.5778 279.757 43.1662 281.018 43.5014C281.637 43.7083 282.305 43.7154 282.929 43.5223C283.275 43.3651 283.577 43.1262 283.809 42.8259C284.041 42.5257 284.197 42.1737 284.262 41.8001C284.387 41.0495 284.322 40.2801 284.074 39.5608C283.731 38.4391 283.066 37.2923 281.95 36.917C281.601 36.7815 281.213 36.7815 280.864 36.917C280.632 37.0409 280.439 37.2277 280.309 37.4554C280.178 37.6831 280.114 37.9433 280.124 38.2055C280.151 38.7305 280.312 39.2401 280.592 39.6859C281.24 40.8135 282.152 41.7676 283.251 42.4665C284.349 43.1649 285.601 43.5874 286.9 43.6974C287.766 43.8205 288.648 43.6103 289.366 43.1095C289.665 42.8326 289.906 42.499 290.075 42.1278C290.244 41.7571 290.336 41.3564 290.348 40.9494C290.443 39.7289 290.098 38.5146 289.374 37.5258C289.228 37.3299 289.006 37.1088 288.768 37.1881C288.53 37.2673 288.463 37.5342 288.434 37.7719C288.325 38.706 288.403 39.6521 288.664 40.5558C288.926 41.459 289.364 42.3017 289.955 43.0344C290.607 43.8309 291.598 44.5231 292.601 44.2854C292.981 44.1699 293.321 43.9535 293.587 43.6595C293.853 43.3659 294.034 43.0056 294.11 42.6174C294.255 41.8389 294.177 41.0353 293.884 40.2989C293.525 40.5191 293.217 40.8139 292.983 41.1638C292.748 41.5136 292.592 41.9098 292.526 42.3255C292.342 43.1595 292.354 43.9935 292.212 44.8275C291.426 49.5062 286.26 51.5954 285.257 56.0865" stroke="#CCDDE2" stroke-width="4.59" stroke-linejoin="round"/>
<path d="M282.954 12.8511L282.758 1" stroke="#CCDDE2" stroke-width="4.59" stroke-linejoin="round"/>
<path d="M260.294 23.8774L252.072 15.3247" stroke="#CCDDE2" stroke-width="4.59" stroke-linejoin="round"/>
<path d="M305.693 24.4107L314.099 16.0332" stroke="#CCDDE2" stroke-width="4.59" stroke-linejoin="round"/>
<path d="M310.182 136.374C312.56 136.374 314.488 134.452 314.488 132.079C314.488 129.707 312.56 127.784 310.182 127.784C307.805 127.784 305.877 129.707 305.877 132.079C305.877 134.452 307.805 136.374 310.182 136.374Z" fill="#F47960"/>
</svg>
