<svg width="382" height="343" viewBox="0 0 382 343" fill="none" xmlns="http://www.w3.org/2000/svg">
<path d="M313.107 220.981H220.123C218.131 220.981 216.516 222.593 216.516 224.58V289.97C216.516 291.958 218.131 293.569 220.123 293.569H313.107C315.099 293.569 316.714 291.958 316.714 289.97V224.58C316.714 222.593 315.099 220.981 313.107 220.981Z" fill="#F47960"/>
<path d="M308.418 224.38H224.818C222.826 224.38 221.211 225.991 221.211 227.979V286.571C221.211 288.559 222.826 290.17 224.818 290.17H308.418C310.41 290.17 312.026 288.559 312.026 286.571V227.979C312.026 225.991 310.41 224.38 308.418 224.38Z" fill="#F47960"/>
<path d="M357.566 293.569H324.021C323.062 293.569 322.112 293.38 321.226 293.013C320.339 292.647 319.534 292.11 318.856 291.433C318.178 290.756 317.64 289.953 317.273 289.069C316.907 288.184 316.718 287.236 316.719 286.279V234.1C316.719 233.631 316.812 233.166 316.995 232.734C317.177 232.302 317.444 231.91 317.78 231.582C318.116 231.253 318.514 230.996 318.951 230.823C319.388 230.65 319.856 230.566 320.326 230.576L338.986 230.743C339.487 230.755 339.98 230.872 340.433 231.087C340.885 231.303 341.287 231.612 341.611 231.994L364.216 258.682C367.795 262.356 369.796 267.278 369.792 272.402V281.367C369.793 282.969 369.478 284.556 368.864 286.037C368.25 287.517 367.349 288.863 366.214 289.996C365.078 291.129 363.73 292.028 362.246 292.641C360.762 293.254 359.172 293.569 357.566 293.569Z" fill="#F47960"/>
<path d="M266.614 278.323C278.265 278.323 287.71 268.9 287.71 257.277C287.71 245.654 278.265 236.231 266.614 236.231C254.963 236.231 245.518 245.654 245.518 257.277C245.518 268.9 254.963 278.323 266.614 278.323Z" fill="#D7E8F0"/>
<path d="M324.021 257.143V239.408C324.021 238.883 324.23 238.379 324.603 238.007C324.975 237.636 325.48 237.427 326.007 237.427H335.985C336.289 237.428 336.589 237.498 336.863 237.632C337.136 237.767 337.375 237.962 337.561 238.203L351.233 255.93C351.46 256.223 351.599 256.574 351.637 256.942C351.673 257.311 351.606 257.682 351.442 258.015C351.278 258.346 351.023 258.626 350.708 258.821C350.393 259.017 350.029 259.12 349.657 259.12H326.02C325.758 259.121 325.499 259.071 325.257 258.973C325.015 258.874 324.795 258.729 324.609 258.545C324.423 258.361 324.276 258.143 324.175 257.903C324.074 257.662 324.022 257.404 324.021 257.143Z" fill="white"/>
<path d="M225.043 293.415V293.556C225.043 297.874 226.762 302.015 229.822 305.068C232.883 308.12 237.034 309.836 241.362 309.836C245.69 309.836 249.84 308.12 252.901 305.068C255.961 302.015 257.68 297.874 257.68 293.556" stroke="#CCDDE2" stroke-width="4.57" stroke-miterlimit="10"/>
<path d="M324.021 293.556C324.021 297.873 325.741 302.013 328.8 305.066C331.861 308.119 336.011 309.834 340.338 309.834C344.666 309.834 348.816 308.119 351.876 305.066C354.936 302.013 356.655 297.873 356.655 293.556" fill="#F47960"/>
<path d="M324.064 142.743C337.633 139.849 352.242 145.074 362.178 154.732C372.114 164.39 377.644 178.009 379.069 191.774C381.364 213.679 375.211 238.983 363.106 257.381" stroke="#CCDDE2" stroke-width="4.57" stroke-miterlimit="10"/>
<path d="M202.535 54.6815C225.266 46.5083 252.515 53.7557 273.833 110.142C280.797 128.57 289.642 137.247 302.103 138.332" stroke="#CCDDE2" stroke-width="4.57" stroke-miterlimit="10"/>
<path d="M115.662 81.7815C115.662 81.7815 141.035 78.8625 141.189 109.925L212.216 89.2917L223.368 85.7931C223.368 85.7931 207.367 66.4276 188.908 63.0957C189.107 64.9777 189.481 66.8371 190.024 68.6502C190.977 71.9862 187.817 73.9461 183.432 75.1887C179.048 76.4314 170.169 69.0797 168.644 62.5954C168.644 62.5954 170.834 60.6229 162.675 62.0366C154.515 63.4502 129.757 69.1881 115.662 81.7815Z" fill="#2E2E2E"/>
<path d="M5.50582 232.529C6.19836 232.901 6.97216 233.097 7.75884 233.1C8.46781 233.099 9.1675 232.939 9.80633 232.633C10.4451 232.326 11.0067 231.88 11.4498 231.328L27.4592 211.75L40.3796 195.574L29.8042 189.657C28.7082 189.04 27.4116 188.882 26.1989 189.218C24.9863 189.555 23.9572 190.357 23.3377 191.45L3.62064 225.99C3.30747 226.542 3.10771 227.15 3.03306 227.779C2.95844 228.408 3.01044 229.046 3.186 229.655C3.36156 230.264 3.65717 230.832 4.05552 231.325C4.45388 231.819 4.94691 232.228 5.50582 232.529Z" fill="#2E2E2E"/>
<path d="M249.199 324.898L262.525 337.975C263.677 339.11 265.232 339.746 266.851 339.747H300.195C301.566 339.756 302.887 339.237 303.883 338.298C304.88 337.359 305.475 336.074 305.546 334.708C305.616 333.343 305.156 332.003 304.262 330.967C303.367 329.931 302.107 329.279 300.743 329.147L282.242 327.237L249.199 324.898Z" fill="#2E2E2E"/>
<path d="M187.805 61.6085V62.5092V62.7385C195.177 64.5829 202.12 67.8401 208.245 72.3295C209.236 73.0551 210.205 73.789 211.171 74.5647C211.196 71.4538 210.928 68.3305 209.917 65.3907C209.1 62.8645 207.565 60.6289 205.499 58.9563C203.68 57.5094 201.528 56.5794 199.362 55.7413C197.197 54.9031 195.074 54.1692 193.092 53.0391C191.42 52.1242 189.959 50.8699 188.804 49.357C188.4 48.8095 188.148 48.1648 188.074 47.4888C188.001 46.8129 188.109 46.1294 188.386 45.5081C188.191 45.4952 187.998 45.4572 187.813 45.3955L187.805 61.6085Z" fill="#F47960"/>
<path d="M187.805 61.6085V62.5092V62.7385C195.177 64.5829 202.12 67.8401 208.245 72.3295C209.236 73.0551 210.205 73.789 211.171 74.5647C211.196 71.4538 210.928 68.3305 209.917 65.3907C209.1 62.8645 207.565 60.6289 205.499 58.9563C203.68 57.5094 201.528 56.5794 199.362 55.7413C197.197 54.9031 195.074 54.1692 193.092 53.0391C191.42 52.1242 189.959 50.8699 188.804 49.357C188.4 48.8095 188.148 48.1648 188.074 47.4888C188.001 46.8129 188.109 46.1294 188.386 45.5081C188.191 45.4952 187.998 45.4572 187.813 45.3955L187.805 61.6085Z" fill="#F47960"/>
<path d="M85.9587 131.873C88.7262 133.854 91.8061 135.36 95.0711 136.33C96.4714 136.747 93.1608 138.307 94.5987 138.586C88.9098 125.192 92.9685 104.601 110.968 85.8107C114.032 82.6081 121.079 78.5507 124.553 75.7318C130.141 71.199 136.257 70.611 142.109 67.8922C144.724 66.6875 147.41 65.6404 150.151 64.7563C155.024 63.1409 160.054 62.0396 165.157 61.4704C166.315 61.3286 167.46 61.2285 168.618 61.166C168.335 59.1806 168.392 57.1615 168.785 55.1945C169.851 49.7986 171.711 46.7003 175.097 42.4469C177.221 39.7697 180.531 33.3688 176.113 31.1628C173.329 29.7784 173.074 26.947 174.382 25.2206C175.49 23.7444 177.726 23.073 180.494 24.8036C182.404 26.0212 184.674 26.1005 186.856 25.5041C188.556 24.5159 190.031 23.1835 191.186 21.5927C194.392 17.0057 194.505 10.0626 189.493 6.69744C186.755 4.85847 183.269 4.41228 179.996 4.76673C178.534 4.93562 177.093 5.25837 175.699 5.73C175.693 5.7275 175.687 5.72625 175.68 5.72625C175.674 5.72625 175.667 5.7275 175.661 5.73C169.743 8.91588 165.504 14.8081 163.468 21.4467C162.273 25.3707 160.923 29.2571 159.343 33.0644C158.047 36.1877 157.144 39.9865 154.252 42.1174C153.046 43.0111 151.675 43.6587 150.218 44.0231C144.759 47.4759 137.185 45.4826 131.216 44.7487C126.442 44.0978 121.583 44.5881 117.037 46.179C111.946 48.7436 107.569 52.851 104.016 58.1761C98.1643 66.9998 104.359 79.7225 94.5486 86.6822C91.5933 88.7672 88.1699 90.0474 84.9346 91.6862C80.3031 94.0381 76.5746 97.3741 75.1993 102.528C72.4531 112.853 77.3144 125.613 85.9587 131.873Z" fill="#F47960"/>
<path d="M206.982 207.4L282.452 327.116L250.266 325.599L238.261 314.673H224.538C224.538 314.673 187.136 259.954 178.558 250.68C169.981 241.406 178.558 217.9 178.558 217.9L206.982 207.4Z" fill="white"/>
<path d="M325.886 339.742H93.7246" stroke="black" stroke-width="4.57" stroke-miterlimit="10"/>
<path d="M196.318 17.4058C196.914 18.6385 197.424 19.9103 197.844 21.213C198.454 23.3356 197.794 24.645 198.722 26.6632C199.04 27.3596 199.499 28.5397 199.976 29.7365C200.114 29.4571 200.243 29.2278 200.319 29.0485C203.959 20.9628 199.173 17.0639 196.87 15.7295C196.728 16.3012 196.543 16.8616 196.318 17.4058Z" fill="#F47960"/>
<path d="M196.318 17.4058C196.914 18.6385 197.424 19.9103 197.844 21.213C198.454 23.3356 197.794 24.645 198.722 26.6632C199.04 27.3596 199.499 28.5397 199.976 29.7365C200.114 29.4571 200.243 29.2278 200.319 29.0485C203.959 20.9628 199.173 17.0639 196.87 15.7295C196.728 16.3012 196.543 16.8616 196.318 17.4058Z" fill="#F47960"/>
<path d="M161.9 234.011C158.009 247.66 151.73 261.5 146.526 270.249C142.764 276.561 136.747 281.22 129.683 283.29C122.62 285.36 115.033 284.687 108.446 281.408L51.3267 253.131V240.333L27.4589 211.764L11.4496 231.326C11.0049 231.875 10.4425 232.318 9.8038 232.621C9.16505 232.925 8.4662 233.083 7.75861 233.081C6.92825 233.077 6.11345 232.856 5.39469 232.441C4.67594 232.026 4.07812 231.432 3.66025 230.716C3.24237 230 3.01887 229.188 3.01189 228.359C3.00491 227.531 3.21466 226.715 3.62041 225.992L23.3375 191.469C23.9573 190.376 24.9864 189.574 26.1986 189.238C27.4113 188.901 28.7079 189.059 29.8039 189.676L40.3793 195.593L100.989 229.458C101.997 230.021 103.125 230.336 104.279 230.38C105.433 230.423 106.582 230.192 107.629 229.705C108.676 229.219 109.593 228.492 110.303 227.583C111.014 226.675 111.497 225.61 111.715 224.479L118.896 186.949" stroke="black" stroke-width="4.57" stroke-miterlimit="10"/>
<path d="M135.613 212.3L151.142 224.902C167.486 237.765 181.709 253.102 193.297 270.355L224.321 314.794H274.398" stroke="black" stroke-width="4.57" stroke-miterlimit="10"/>
<path d="M238.93 314.802L249.201 324.898L262.527 337.975C263.679 339.11 265.233 339.747 266.853 339.747H300.197C301.567 339.755 302.888 339.236 303.885 338.298C304.881 337.359 305.477 336.074 305.548 334.708C305.618 333.343 305.158 332.003 304.263 330.967C303.369 329.931 302.108 329.28 300.744 329.147L282.244 327.237L192.934 185.561C188.336 178.247 184.239 166.208 187.805 158.323C201.386 128.328 200.211 99.2715 200.211 99.2715" stroke="black" stroke-width="4.57" stroke-miterlimit="10"/>
<path d="M187.804 42.8437V61.4836V62.3843V62.6137C189.723 65.4076 190.693 69.3691 188.857 72.3381C186.404 76.3121 180.982 75.6533 177.542 73.4306C176.532 72.7764 175.567 72.0546 174.654 71.2706C171.597 68.6197 169.619 64.9439 169.094 60.9373C168.812 58.9532 168.867 56.9358 169.257 54.9701C170.332 49.5783 172.183 46.4799 175.582 42.2182C177.705 39.5452 181.016 33.1401 176.589 30.9342C171.41 28.3571 174.997 20.8136 180.97 24.5833C185.601 27.5023 192.256 23.8619 195.006 19.9379C198.212 15.3509 198.329 8.40785 193.313 5.04266C190.575 3.20369 187.089 2.7575 183.821 3.11195C173.851 4.20449 166.762 11.9774 163.924 21.2181C162.728 25.1421 161.378 29.0285 159.802 32.8357C158.502 35.9632 157.599 39.7579 154.711 41.8888C149.214 45.9921 141.247 43.8445 135.023 43.0856C122.065 41.4968 111.615 47.2222 104.476 57.9391C98.6238 66.7628 104.819 79.4855 95.0039 86.4452C92.0529 88.5302 88.6294 89.8104 85.3899 91.4492C80.7543 93.7969 77.0299 97.1371 75.6505 102.291C72.9043 112.65 77.7656 125.414 86.4057 131.673C90.3641 134.542 94.9956 136.26 99.8068 137.194" stroke="black" stroke-width="4.57" stroke-miterlimit="10"/>
<path d="M213.381 76.9612C213.406 76.7235 213.419 76.4942 213.427 76.269C213.644 72.1782 213.619 67.929 212.282 64.0134C211.463 61.4893 209.928 59.2558 207.863 57.5832C206.037 56.1363 203.888 55.198 201.731 54.364C199.574 53.53 197.438 52.7961 195.461 51.6618C193.786 50.7532 192.325 49.498 191.177 47.9797C190.77 47.4351 190.516 46.793 190.439 46.1187C190.362 45.444 190.465 44.7613 190.738 44.1392" stroke="black" stroke-width="4.57" stroke-miterlimit="10"/>
<path d="M51.332 240.338V201.707" stroke="black" stroke-width="4.57" stroke-miterlimit="10"/>
<path d="M183.787 38.672C185.288 40.8112 187.323 43.1214 189.89 43.9595C193.213 45.0354 195.449 42.2248 196.641 39.4851C197.355 37.8547 197.844 36.1199 198.421 34.4353C198.609 33.8806 198.722 33.6013 199.362 33.5679C200.001 33.5345 200.666 33.668 201.318 33.668C201.368 33.6705 201.417 33.6588 201.46 33.6342C201.503 33.6096 201.538 33.5733 201.561 33.5291C201.584 33.4853 201.593 33.4357 201.589 33.3865C201.584 33.3373 201.566 33.2902 201.535 33.251C200.658 31.9207 199.349 28.2845 198.685 26.8292C197.765 24.8109 198.43 23.4932 197.811 21.3832C197.389 20.0813 196.882 18.8082 196.294 17.5718" stroke="black" stroke-width="4.57" stroke-miterlimit="10"/>
<path d="M197.271 13.6772C197.271 13.6772 206.33 17.1383 201.652 27.555C201.364 28.1888 200.653 29.5024 200.319 30.0987" stroke="black" stroke-width="4.57" stroke-miterlimit="10"/>
<path d="M196.77 39.169C196.045 39.267 195.309 39.0985 194.7 38.6949C194.091 38.2912 193.649 37.6799 193.459 36.9756" stroke="black" stroke-width="4.57" stroke-miterlimit="10"/>
<path d="M198.305 25.2164C196.428 23.6943 194.371 25.6334 193.117 27.0553" stroke="black" stroke-width="4.57" stroke-miterlimit="10"/>
<path d="M187.805 62.6128C195.181 64.4576 202.127 67.7152 208.257 72.2038C210.038 73.4882 211.756 74.8559 213.424 76.2779C220.003 81.849 225.793 88.2958 231.419 94.8135" stroke="black" stroke-width="4.57" stroke-miterlimit="10"/>
<path d="M239.857 156.301C239.823 156.28 239.792 156.255 239.765 156.226C232.383 148.862 224.947 141.552 217.544 134.212C211.341 128.066 203.273 121.773 199.486 113.708" stroke="black" stroke-width="4.57" stroke-miterlimit="10"/>
<path d="M153.303 209.321C153.905 209.129 154.477 208.937 155.021 208.737C155.03 208.741 155.04 208.741 155.05 208.737" stroke="black" stroke-width="4.57" stroke-miterlimit="10"/>
<path d="M97.1107 122.728L141.189 109.926L222.135 86.4113C226.023 85.2942 230.197 85.7587 233.744 87.7028C237.29 89.6468 239.921 92.9123 241.062 96.7863L258.446 156.363C259.566 160.242 259.103 164.405 257.157 167.944C255.211 171.484 251.94 174.111 248.059 175.253L161.792 200.307L153.557 202.692L145.197 205.131L136.963 207.529L130.275 209.46L106.532 216.357C102.644 217.476 98.4688 217.012 94.9217 215.068C91.3741 213.124 88.7436 209.857 87.6054 205.982L70.2208 146.405C69.0997 142.528 69.5625 138.366 71.5078 134.829C73.4536 131.291 76.7241 128.666 80.6039 127.527L81.2267 127.348L81.7492 127.194L92.8346 123.97L97.1107 122.728Z" fill="white"/>
<path d="M103.735 124.282L144.574 112.423L219.58 90.6347C223.185 89.593 227.058 90.0196 230.349 91.8214C233.639 93.6229 236.08 96.6528 237.136 100.247L253.237 155.432C254.274 159.026 253.846 162.884 252.045 166.164C250.244 169.444 247.217 171.882 243.623 172.946L163.68 196.165L156.052 198.383L148.29 200.639L140.661 202.866L134.458 204.638L109.073 212.144C105.467 213.187 101.594 212.761 98.3032 210.959C95.0118 209.157 92.5715 206.127 91.5169 202.532L75.4239 147.317C74.3798 143.723 74.8053 139.863 76.6069 136.581C78.4089 133.298 81.4402 130.862 85.0379 129.803L85.6148 129.637L86.0997 129.499L99.7724 125.412L103.735 124.282Z" fill="#F47960"/>
<path d="M108.159 126.242L146.026 115.246L218.34 94.1248C221.68 93.1657 225.266 93.5644 228.313 95.234C231.359 96.9037 233.62 99.7088 234.6 103.036L249.539 154.223C250.501 157.556 250.103 161.133 248.431 164.173C246.759 167.214 243.949 169.471 240.615 170.452L163.728 192.908L156.655 194.96L149.462 197.045L142.385 199.105L136.654 200.773L110.817 208.362C107.474 209.33 103.883 208.935 100.831 207.265C97.7801 205.594 95.5174 202.784 94.5406 199.451L79.5971 148.268C78.634 144.937 79.0319 141.36 80.7039 138.321C82.3763 135.281 85.187 133.025 88.5214 132.047L91.3554 131.242L91.8068 131.109L104.485 127.322L108.159 126.242Z" fill="#F47960"/>
<path d="M164.442 156.705L96.3877 175.866C96.0249 175.968 95.6453 175.998 95.2708 175.954C94.8967 175.91 94.5347 175.792 94.2057 175.608C93.8768 175.425 93.5875 175.178 93.3543 174.882C93.1214 174.586 92.9488 174.248 92.8472 173.885C92.7728 173.635 92.7348 173.375 92.7344 173.114C92.7373 172.491 92.9421 171.886 93.3192 171.388C93.6958 170.892 94.2241 170.53 94.8244 170.358L162.879 151.209C162.605 152.144 162.592 153.136 162.841 154.078C163.112 155.089 163.667 156 164.442 156.705Z" fill="#F47960"/>
<path d="M180.339 150.05C180.339 150.675 180.135 151.282 179.758 151.782C179.381 152.281 178.851 152.645 178.249 152.819L173.338 154.203C173.618 153.231 173.62 152.201 173.347 151.227C173.073 150.253 172.533 149.375 171.787 148.69L176.699 147.31C177.431 147.107 178.214 147.201 178.876 147.572C179.539 147.943 180.028 148.561 180.235 149.291C180.308 149.537 180.344 149.793 180.339 150.05Z" fill="#D7E8F0"/>
<path d="M183.431 160.984C183.429 161.608 183.224 162.213 182.847 162.71C182.47 163.207 181.942 163.569 181.341 163.741L113.709 182.772C114.114 181.837 114.246 180.807 114.088 179.8C113.931 178.793 113.49 177.852 112.818 177.085L179.778 158.228C180.51 158.026 181.292 158.121 181.955 158.492C182.617 158.863 183.105 159.48 183.314 160.209C183.392 160.46 183.431 160.721 183.431 160.984Z" fill="#D7E8F0"/>
<path d="M105.574 185.04L99.4798 186.754C99.1082 186.9 98.7102 186.967 98.311 186.95C97.9122 186.934 97.521 186.834 97.1628 186.658C96.8046 186.482 96.4873 186.233 96.2315 185.926C95.9757 185.621 95.7867 185.265 95.6768 184.882C95.5668 184.499 95.5389 184.097 95.5936 183.703C95.6488 183.308 95.7859 182.929 95.9966 182.59C96.2072 182.252 96.4865 181.961 96.8163 181.736C97.1461 181.512 97.5193 181.359 97.9123 181.287L103.346 179.761C103.229 180.509 103.265 181.274 103.451 182.008C103.776 183.238 104.529 184.312 105.574 185.04Z" fill="#F47960"/>
<path d="M166.159 179.939L103.016 197.716C102.284 197.915 101.503 197.818 100.842 197.447C100.18 197.077 99.6913 196.462 99.4798 195.735C99.4063 195.488 99.3712 195.231 99.3753 194.972C99.3766 194.347 99.581 193.74 99.958 193.241C100.335 192.741 100.864 192.378 101.465 192.203L164.516 174.468C164.253 175.442 164.267 176.471 164.557 177.437C164.847 178.404 165.402 179.27 166.159 179.939Z" fill="#F47960"/>
<path d="M186.981 171.913C186.982 172.537 186.778 173.144 186.4 173.642C186.023 174.139 185.493 174.5 184.891 174.669L174.988 177.451L166.169 179.953C165.412 179.284 164.856 178.417 164.566 177.45C164.276 176.484 164.262 175.456 164.526 174.482L173.513 171.955L183.336 169.186C184.067 168.98 184.85 169.072 185.514 169.441C186.177 169.809 186.667 170.426 186.876 171.154C186.946 171.401 186.982 171.657 186.981 171.913Z" fill="#D7E8F0"/>
<path d="M173.337 154.202C173.009 155.346 172.312 156.351 171.355 157.062C170.397 157.772 169.232 158.148 168.039 158.132C166.846 158.116 165.691 157.708 164.753 156.972C163.815 156.237 163.146 155.213 162.849 154.06C162.669 153.371 162.627 152.653 162.726 151.947C162.824 151.242 163.061 150.562 163.423 149.948C163.785 149.334 164.264 148.797 164.834 148.368C165.404 147.938 166.054 147.625 166.745 147.447C167.623 147.219 168.544 147.214 169.425 147.432C170.305 147.651 171.117 148.086 171.786 148.698C172.532 149.383 173.072 150.261 173.346 151.234C173.619 152.208 173.616 153.239 173.337 154.211V154.202Z" fill="white"/>
<g opacity="0.72">
<path opacity="0.72" d="M170.419 151.602C170.485 152.258 170.364 152.921 170.067 153.511C169.925 153.803 169.757 154.083 169.566 154.345C169.461 154.483 168.914 155.271 168.755 155.238C167.676 155.046 166.134 154.208 165.637 153.086C165.562 152.91 165.51 152.725 165.482 152.536C165.444 152.261 165.489 151.981 165.613 151.733C165.737 151.485 165.933 151.279 166.175 151.144C166.418 151.009 166.696 150.95 166.973 150.975C167.25 151 167.512 151.108 167.727 151.285C167.842 151.002 168.047 150.765 168.31 150.609C168.572 150.453 168.879 150.386 169.183 150.419C169.487 150.452 169.772 150.583 169.995 150.792C170.217 151.001 170.366 151.276 170.419 151.577V151.602Z" fill="#F47960"/>
</g>
<path d="M113.709 182.771C113.263 183.811 112.502 184.686 111.532 185.273C110.563 185.861 109.433 186.13 108.302 186.045C107.171 185.959 106.095 185.523 105.225 184.797C104.355 184.07 103.735 183.091 103.451 181.995C103.265 181.261 103.23 180.496 103.347 179.747C103.522 178.715 103.993 177.755 104.702 176.983C105.41 176.211 106.328 175.659 107.343 175.394C108.323 175.134 109.358 175.157 110.327 175.458C111.295 175.758 112.159 176.326 112.819 177.095C113.491 177.863 113.931 178.804 114.089 179.811C114.246 180.817 114.114 181.848 113.709 182.783V182.771Z" fill="white"/>
<g opacity="0.72">
<path opacity="0.72" d="M111.026 179.531C111.092 180.189 110.969 180.851 110.671 181.441C110.532 181.736 110.364 182.015 110.169 182.275C110.065 182.413 109.517 183.201 109.362 183.168C108.28 182.976 106.742 182.138 106.244 181.012C106.168 180.836 106.115 180.651 106.089 180.461C106.051 180.187 106.097 179.907 106.22 179.659C106.344 179.411 106.54 179.205 106.783 179.07C107.025 178.935 107.303 178.876 107.58 178.901C107.857 178.926 108.12 179.034 108.334 179.21C108.416 179.009 108.545 178.828 108.709 178.683C108.872 178.539 109.068 178.434 109.279 178.376C109.47 178.332 109.668 178.326 109.861 178.361C110.055 178.395 110.239 178.469 110.403 178.577C110.567 178.685 110.706 178.826 110.814 178.99C110.921 179.154 110.993 179.338 111.026 179.531Z" fill="#F47960"/>
</g>
<path d="M174.979 177.45C174.598 178.698 173.778 179.767 172.669 180.458C171.56 181.15 170.238 181.417 168.947 181.212C167.655 181.006 166.482 180.341 165.644 179.339C164.806 178.338 164.36 177.068 164.388 175.764C164.416 174.459 164.916 173.209 165.797 172.244C166.677 171.28 167.877 170.665 169.176 170.515C170.475 170.365 171.785 170.689 172.863 171.427C173.941 172.165 174.715 173.268 175.042 174.531C175.289 175.491 175.267 176.501 174.979 177.45Z" fill="white"/>
<g opacity="0.72">
<path opacity="0.72" d="M172.087 174.798C172.15 175.455 172.027 176.117 171.732 176.708C171.591 177.001 171.423 177.28 171.23 177.542C171.125 177.679 170.578 178.467 170.423 178.434C169.341 178.242 167.798 177.404 167.301 176.282C167.226 176.105 167.174 175.918 167.146 175.728C167.108 175.453 167.153 175.173 167.277 174.925C167.401 174.677 167.597 174.472 167.84 174.336C168.082 174.201 168.36 174.142 168.637 174.167C168.914 174.192 169.176 174.3 169.391 174.477C169.508 174.195 169.713 173.959 169.977 173.804C170.24 173.649 170.546 173.583 170.85 173.616C171.154 173.65 171.439 173.781 171.662 173.989C171.885 174.198 172.034 174.472 172.087 174.773V174.798Z" fill="#F47960"/>
</g>
<path d="M163.765 192.041C160.141 192.242 156.241 187.037 155.05 185.741C154.918 185.603 154.767 185.483 154.603 185.386L151.363 182.772L151.906 186.883C152.772 188.864 157.34 193.184 160.597 198.142C163.853 203.1 160.751 204.184 159.008 204.814C157.265 205.444 155.443 202.158 156.153 205.727C156.864 209.297 152.642 209.347 150.009 208.901C147.375 208.455 146.431 205.565 147.028 207.833C147.626 210.102 145.653 211.757 143.873 211.832C142.522 211.899 139.927 210.081 138.756 209.205C138.489 210.64 137.523 213.333 134.158 211.899C129.69 209.993 125.351 198.605 122.036 186.95C118.721 175.295 97.253 154.036 94.1222 131.526C94.1222 131.489 94.1222 131.435 94.1222 131.397C93.955 129.696 93.8701 127.982 93.8672 126.255C93.868 122.974 94.1874 119.701 94.8202 116.481C95.2729 114.138 95.8773 111.827 96.6302 109.563L132.077 116.585C131.834 116.852 131.592 117.119 131.349 117.398C123.052 127.01 127.901 139.199 134.213 148.148C140.616 157.255 147.986 166.254 156.408 173.585C158.881 175.732 161.192 178.059 163.322 180.545L162.862 180.799C163.363 181.771 163.921 182.713 164.534 183.618C167.038 187.062 167.406 191.837 163.765 192.041Z" fill="white"/>
<path d="M141.189 109.926L222.135 86.4113C226.024 85.2942 230.198 85.7587 233.745 87.7028C237.291 89.6468 239.922 92.9123 241.062 96.7863L258.447 156.363C259.567 160.242 259.103 164.405 257.157 167.944C255.211 171.484 251.941 174.111 248.06 175.253L161.793 200.307" stroke="black" stroke-width="4.57" stroke-miterlimit="10"/>
<path d="M130.254 209.46L106.532 216.357C102.644 217.476 98.4688 217.013 94.9217 215.069C91.3741 213.124 88.7436 209.857 87.6054 205.982L70.2208 146.405C69.0997 142.528 69.5625 138.366 71.5078 134.829C73.4536 131.292 76.7241 128.667 80.6039 127.528L81.2267 127.348L81.7492 127.194L92.8346 123.971" stroke="black" stroke-width="4.57" stroke-miterlimit="10"/>
<path d="M153.558 202.69H153.545" stroke="black" stroke-width="4.57" stroke-miterlimit="10"/>
<path d="M136.939 207.529H136.926" stroke="black" stroke-width="4.57" stroke-miterlimit="10"/>
<path d="M141.447 184.689C142.613 191.036 147.914 197.913 153.536 202.675C155.17 204.059 158.782 205.744 160.742 204.163C164.972 200.761 157.741 195.156 155.747 192.904C153.327 190.169 151.37 186.962 150.643 183.347C150.58 183.124 150.593 182.886 150.681 182.671C150.766 182.554 150.886 182.468 151.023 182.426C151.161 182.383 151.309 182.386 151.446 182.434C151.715 182.533 151.959 182.692 152.156 182.901C154.447 184.986 156.491 187.292 158.564 189.573C160.031 191.203 163.848 193.226 165.72 191.149C169.783 186.641 158.284 176.137 155.341 173.56C146.927 166.221 139.545 157.222 133.141 148.123C126.83 139.174 121.981 126.985 130.278 117.373C134.609 112.369 141.021 110.184 146.747 107.228C155.985 102.474 157.887 94.5508 157.887 94.5508" stroke="black" stroke-width="4.57" stroke-miterlimit="10"/>
<path d="M136.08 191.14C136.08 191.14 140.862 204.738 151.019 208.971C151.623 209.239 152.278 209.368 152.938 209.348C153.598 209.328 154.245 209.161 154.832 208.858C156.086 208.158 157.11 206.773 155.35 203.996" stroke="black" stroke-width="4.57" stroke-miterlimit="10"/>
<path d="M129.459 194.318C131.323 199.364 133.798 204.639 137.777 208.392C139.591 210.098 141.89 211.786 144.465 211.895C147.567 212.024 147.809 208.905 146.555 206.782C146.284 206.328 145.958 205.908 145.585 205.531" stroke="black" stroke-width="4.57" stroke-miterlimit="10"/>
<path d="M137.778 208.393C137.778 208.393 137.552 213.814 133.084 211.9C128.615 209.985 124.264 198.601 120.962 186.942C117.66 175.283 96.0699 153.962 93.006 131.398L93.0394 131.673C93.0394 131.623 93.0394 131.585 93.0394 131.535C92.5173 126.51 92.7481 121.435 93.7249 116.477C103.402 67.6217 168.643 61.1582 168.643 61.1582" stroke="black" stroke-width="4.57" stroke-miterlimit="10"/>
<path d="M265.306 164.335C263.501 169.652 259.036 173.042 253.535 173.868C251.178 174.214 248.636 174.531 246.429 173.451C244.812 172.663 243.219 170.824 243.704 168.893C242.985 168.902 242.267 168.821 241.568 168.651C240.611 168.422 239.62 167.967 239.198 167.087C238.776 166.207 239.073 164.981 239.758 164.193C240.505 163.459 241.425 162.922 242.433 162.634C242.678 162.544 242.928 162.467 243.182 162.404C242.365 162.411 241.549 162.36 240.74 162.25C239.186 162.05 237.442 161.387 236.978 159.902C236.85 159.398 236.851 158.869 236.983 158.365C237.114 157.861 237.372 157.399 237.731 157.021C238.462 156.271 239.379 155.727 240.389 155.445C240.494 155.42 240.582 155.382 240.682 155.357C238.839 155.332 236.953 154.965 236.138 153.222C235.876 152.603 235.802 151.921 235.925 151.259C236.047 150.598 236.361 149.987 236.828 149.502C238.458 147.676 240.899 147.417 243.203 147.242C245.506 147.067 248.306 146.988 251.019 146.938C251.608 146.922 252.186 146.772 252.709 146.5C253.231 146.227 253.684 145.839 254.032 145.365C254.382 144.891 254.617 144.344 254.721 143.765C254.826 143.186 254.796 142.591 254.635 142.026C253.577 138.273 253.13 134.178 255.358 133.177C258.681 131.676 260.972 135.766 261.925 138.281C264.838 145.987 268.082 156.195 265.306 164.335Z" fill="white"/>
<path d="M251.291 161.238C248.603 161.81 245.882 162.393 243.157 162.418C242.903 162.481 242.653 162.558 242.408 162.648C241.4 162.936 240.48 163.472 239.733 164.207C239.048 164.995 238.717 166.163 239.173 167.101C239.629 168.04 240.586 168.436 241.543 168.665C242.242 168.834 242.96 168.916 243.679 168.907C245.15 168.877 246.614 168.694 248.047 168.361C248.29 168.311 251.257 167.969 251.487 167.914" stroke="black" stroke-width="4.57" stroke-miterlimit="10"/>
<path d="M240.653 155.371C240.552 155.396 240.464 155.434 240.36 155.459C239.35 155.741 238.433 156.285 237.701 157.035C237.342 157.412 237.085 157.875 236.953 158.379C236.822 158.883 236.82 159.412 236.949 159.916C237.434 161.401 239.177 162.064 240.711 162.264C241.52 162.373 242.336 162.425 243.152 162.418" stroke="black" stroke-width="4.57" stroke-miterlimit="10"/>
<path d="M253.548 155.091C253.343 155.091 253.151 155.091 252.95 155.091L243.236 155.308C242.475 155.308 241.564 155.383 240.653 155.358C238.809 155.333 236.924 154.966 236.109 153.223C235.847 152.604 235.773 151.921 235.895 151.26C236.018 150.6 236.332 149.989 236.799 149.504C238.429 147.677 240.87 147.419 243.173 147.243C245.476 147.068 248.281 146.997 250.994 146.939C251.585 146.926 252.166 146.777 252.69 146.505C253.215 146.233 253.67 145.844 254.02 145.369C254.371 144.893 254.607 144.344 254.712 143.763C254.816 143.182 254.785 142.586 254.622 142.018C253.565 138.265 253.109 134.166 255.341 133.166C258.664 131.664 260.955 135.755 261.908 138.27C264.834 145.976 268.082 156.201 265.306 164.324C263.496 169.641 259.036 173.039 253.54 173.856C251.186 174.207 248.636 174.524 246.434 173.439C244.824 172.655 243.228 170.821 243.708 168.89" stroke="black" stroke-width="4.57" stroke-miterlimit="10"/>
<g opacity="0.54">
<path opacity="0.54" d="M176.564 133.245C176.491 132.763 176.381 132.288 176.234 131.823L174.592 126.523C174.09 124.9 173.534 123.187 172.255 122.069C169.885 119.984 166.232 120.764 163.201 121.673L155.765 123.9C154.055 124.413 152.32 124.938 150.828 125.91C149.336 126.881 148.09 128.391 147.856 130.155C147.681 131.456 148.065 132.757 148.446 134.016L149.976 139.103C150.481 140.771 151.041 142.531 152.358 143.69C154.703 145.725 158.285 144.962 161.27 144.082L168.877 141.843C173.467 140.475 177.304 138.028 176.564 133.245Z" fill="white"/>
<path opacity="0.54" d="M166.13 133.866C166.437 133.545 166.653 133.146 166.755 132.714C166.856 132.281 166.84 131.829 166.709 131.404C166.577 130.98 166.335 130.598 166.006 130.297C165.677 129.997 165.274 129.79 164.839 129.696L162.481 129.163L160.128 128.629C159.695 128.525 159.242 128.537 158.815 128.666C158.389 128.794 158.004 129.033 157.701 129.359C157.398 129.685 157.187 130.085 157.091 130.519C156.994 130.953 157.016 131.405 157.152 131.827L157.867 134.129L158.577 136.431C158.703 136.858 158.94 137.244 159.265 137.549C159.59 137.853 159.991 138.066 160.426 138.165C160.86 138.264 161.314 138.246 161.739 138.112C162.164 137.978 162.546 137.733 162.845 137.403L164.488 135.635L166.13 133.866Z" fill="#F47960"/>
</g>
<path d="M334.493 309.835H313.998" stroke="#CCDDE2" stroke-width="4.57" stroke-miterlimit="10"/>
<path d="M310.508 182.007C323.041 182.007 333.201 171.872 333.201 159.368C333.201 146.866 323.041 136.729 310.508 136.729C297.974 136.729 287.814 146.866 287.814 159.368C287.814 171.872 297.974 182.007 310.508 182.007Z" fill="#F47960"/>
<path d="M306.833 169.519C306.569 169.519 306.308 169.467 306.064 169.366C305.82 169.265 305.599 169.117 305.412 168.931L299.56 163.093C299.183 162.717 298.971 162.208 298.971 161.676C298.97 161.145 299.182 160.635 299.558 160.26C299.935 159.883 300.445 159.672 300.978 159.672C301.51 159.671 302.021 159.882 302.398 160.257L306.846 164.694L318.629 152.931C319.006 152.555 319.516 152.343 320.049 152.343C320.582 152.342 321.093 152.553 321.47 152.929C321.847 153.304 322.059 153.814 322.059 154.345C322.059 154.876 321.848 155.386 321.472 155.762L308.25 168.952C307.872 169.32 307.362 169.524 306.833 169.519Z" fill="white"/>
</svg>
