<svg width="182" height="36" viewBox="0 0 182 36" fill="none" xmlns="http://www.w3.org/2000/svg">
<path fill-rule="evenodd" clip-rule="evenodd" d="M55.4618 16.8411C55.4618 16.2888 55.0141 15.8411 54.4618 15.8411H52.3785C51.8262 15.8411 51.3785 16.2888 51.3785 16.8411V19.1593C51.3785 19.7116 51.8262 20.1593 52.3785 20.1593H54.4618C55.0141 20.1593 55.4618 19.7116 55.4618 19.1593V16.8411ZM60.8398 15.8409C60.2875 15.8409 59.8398 16.2886 59.8398 16.8409V19.1591C59.8398 19.7114 60.2875 20.1591 60.8398 20.1591H62.8131C63.3585 20.1591 63.8033 20.5961 63.813 21.1414L63.8462 23.0117C63.8561 23.5708 63.4055 24.0294 62.8463 24.0294H60.83C60.2777 24.0294 59.83 24.4771 59.83 25.0294V27.5C59.83 28.0523 59.3823 28.5 58.83 28.5H56.462C55.9097 28.5 55.462 28.0523 55.462 27.5V25.0294C55.462 24.4771 55.0143 24.0294 54.462 24.0294H52.3787C51.8264 24.0294 51.3787 24.4771 51.3787 25.0294V27.5C51.3787 28.0523 50.931 28.5 50.3787 28.5H47.8242C47.2719 28.5 46.8242 28.0523 46.8242 27.5V25.0294C46.8242 24.4771 46.3765 24.0294 45.8242 24.0294H43C42.4457 24.0294 41.9972 23.5786 42 23.0244L42.0095 21.1541C42.0123 20.6038 42.4592 20.1591 43.0095 20.1591H45.8242C46.3765 20.1591 46.8242 19.7114 46.8242 19.1591V16.8409C46.8242 16.2886 46.3765 15.8409 45.8242 15.8409H43.201C42.6488 15.8409 42.201 15.3932 42.201 14.8409V12.9706C42.201 12.4183 42.6488 11.9706 43.201 11.9706H45.8613C46.4144 11.9706 46.8625 11.5215 46.8613 10.9684L46.8559 8.50219C46.8547 7.94905 47.3027 7.5 47.8559 7.5H50.322C50.8734 7.5 51.3208 7.94638 51.322 8.49781L51.3274 10.9728C51.3286 11.5242 51.776 11.9706 52.3274 11.9706H54.3932C54.9378 11.9706 55.3823 11.5348 55.393 10.9903L55.4426 8.48024C55.4534 7.93576 55.8978 7.5 56.4424 7.5H58.8398C59.3921 7.5 59.8398 7.94772 59.8398 8.5V10.9706C59.8398 11.5228 60.2875 11.9706 60.8398 11.9706H62.982C63.5343 11.9706 63.982 12.4183 63.982 12.9706V14.8409C63.982 15.3932 63.5343 15.8409 62.982 15.8409L60.8398 15.8409Z" fill="#EC4D36"/>
<path fill-rule="evenodd" clip-rule="evenodd" d="M73.5782 18.4141C73.2925 18.0506 73.2933 17.5385 73.5801 17.1758L76.4233 13.5814C76.9419 12.9258 76.4749 11.9611 75.639 11.9611H74.152C73.8364 11.9611 73.5394 12.11 73.3506 12.3629L71.8429 14.3829C71.4453 14.9157 70.648 14.9193 70.2456 14.3901L68.6985 12.3557C68.5094 12.1071 68.215 11.9611 67.9026 11.9611H66.246C65.4113 11.9611 64.944 12.9234 65.4601 13.5794L73.3895 23.6579C73.5791 23.8989 73.8688 24.0396 74.1755 24.0396H75.9417C76.7762 24.0396 77.2436 23.0777 76.7279 22.4216L73.5782 18.4141Z" fill="#EC4D36"/>
<path fill-rule="evenodd" clip-rule="evenodd" d="M69.0332 19.4429C68.6587 18.9514 67.9652 18.951 67.5836 19.4371L65.2399 22.4228C64.7248 23.079 65.1923 24.0403 66.0265 24.0403H67.7322C68.0534 24.0403 68.3552 23.8859 68.5431 23.6254L70.1376 21.4153C70.2604 21.245 70.2605 21.063 70.1341 20.8952C69.8822 20.5606 69.4263 19.9589 69.0332 19.4429Z" fill="#EC4D36"/>
<path d="M85.078 22.5V14.628H86.074V17.928H89.734V14.628H90.742V22.5H89.734V18.792H86.074V22.5H85.078ZM94.5382 22.644C94.0502 22.644 93.6422 22.5 93.3142 22.212C92.9942 21.916 92.8342 21.508 92.8342 20.988C92.8342 20.348 93.1182 19.86 93.6862 19.524C94.2622 19.18 95.1702 18.94 96.4102 18.804C96.4102 18.556 96.3742 18.32 96.3022 18.096C96.2382 17.872 96.1182 17.692 95.9422 17.556C95.7742 17.412 95.5302 17.34 95.2102 17.34C94.8742 17.34 94.5582 17.404 94.2622 17.532C93.9662 17.66 93.7022 17.804 93.4702 17.964L93.0862 17.28C93.3582 17.104 93.6902 16.936 94.0822 16.776C94.4822 16.608 94.9142 16.524 95.3782 16.524C96.0902 16.524 96.6062 16.744 96.9262 17.184C97.2462 17.616 97.4062 18.196 97.4062 18.924V22.5H96.5902L96.5062 21.804H96.4702C96.1982 22.028 95.8982 22.224 95.5702 22.392C95.2502 22.56 94.9062 22.644 94.5382 22.644ZM94.8262 21.852C95.1062 21.852 95.3702 21.784 95.6182 21.648C95.8662 21.512 96.1302 21.32 96.4102 21.072V19.452C95.4422 19.572 94.7622 19.752 94.3702 19.992C93.9862 20.232 93.7942 20.54 93.7942 20.916C93.7942 21.244 93.8942 21.484 94.0942 21.636C94.2942 21.78 94.5382 21.852 94.8262 21.852ZM101.929 22.644C101.417 22.644 100.953 22.524 100.537 22.284C100.121 22.044 99.793 21.696 99.553 21.24C99.313 20.784 99.193 20.236 99.193 19.596C99.193 18.94 99.321 18.384 99.577 17.928C99.841 17.472 100.185 17.124 100.609 16.884C101.041 16.644 101.505 16.524 102.001 16.524C102.385 16.524 102.713 16.592 102.985 16.728C103.265 16.864 103.505 17.024 103.705 17.208L103.201 17.856C103.033 17.704 102.853 17.58 102.661 17.484C102.477 17.388 102.269 17.34 102.037 17.34C101.685 17.34 101.369 17.436 101.089 17.628C100.817 17.812 100.601 18.076 100.441 18.42C100.289 18.756 100.213 19.148 100.213 19.596C100.213 20.26 100.377 20.8 100.705 21.216C101.041 21.624 101.477 21.828 102.013 21.828C102.285 21.828 102.537 21.772 102.769 21.66C103.001 21.54 103.205 21.4 103.381 21.24L103.813 21.9C103.549 22.132 103.257 22.316 102.937 22.452C102.617 22.58 102.281 22.644 101.929 22.644ZM105.482 22.5V13.956H106.454V19.74H106.49L108.974 16.668H110.066L108.11 19.008L110.33 22.5H109.25L107.546 19.692L106.454 20.964V22.5H105.482ZM113.331 22.644C112.915 22.644 112.519 22.568 112.143 22.416C111.767 22.256 111.439 22.064 111.159 21.84L111.651 21.18C111.907 21.38 112.171 21.548 112.443 21.684C112.715 21.812 113.023 21.876 113.367 21.876C113.751 21.876 114.039 21.788 114.231 21.612C114.423 21.428 114.519 21.212 114.519 20.964C114.519 20.764 114.451 20.596 114.315 20.46C114.187 20.324 114.019 20.212 113.811 20.124C113.611 20.028 113.403 19.94 113.187 19.86C112.915 19.756 112.647 19.64 112.383 19.512C112.119 19.376 111.903 19.204 111.735 18.996C111.567 18.78 111.483 18.508 111.483 18.18C111.483 17.708 111.659 17.316 112.011 17.004C112.371 16.684 112.867 16.524 113.499 16.524C113.859 16.524 114.195 16.588 114.507 16.716C114.819 16.844 115.087 17 115.311 17.184L114.831 17.808C114.631 17.656 114.423 17.532 114.207 17.436C113.991 17.34 113.755 17.292 113.499 17.292C113.131 17.292 112.859 17.376 112.683 17.544C112.515 17.712 112.431 17.908 112.431 18.132C112.431 18.316 112.491 18.468 112.611 18.588C112.731 18.7 112.887 18.8 113.079 18.888C113.271 18.968 113.475 19.052 113.691 19.14C113.971 19.244 114.247 19.364 114.519 19.5C114.791 19.628 115.015 19.804 115.191 20.028C115.375 20.244 115.467 20.536 115.467 20.904C115.467 21.216 115.383 21.504 115.215 21.768C115.055 22.032 114.815 22.244 114.495 22.404C114.183 22.564 113.795 22.644 113.331 22.644Z" fill="#1F1F1F"/>
</svg>
