<!-- <svg viewBox="0 0 130 40" xmlns="http://www.w3.org/2000/svg">
  <text y="30" font-family="Motiva Sans Bold, sans-serif" fill="#18216d" font-size="43px" font-weight="700">Landy</text>
</svg> -->
<svg width="97" height="25" viewBox="0 0 97 25" fill="none" xmlns="http://www.w3.org/2000/svg">
<path d="M18.736 1.664V24H14.256V14.496H4.688V24H0.208V1.664H4.688V10.848H14.256V1.664H18.736ZM21.9935 15.072C21.9935 13.28 22.3455 11.6907 23.0495 10.304C23.7748 8.91733 24.7455 7.85067 25.9615 7.104C27.1988 6.35733 28.5748 5.984 30.0895 5.984C31.4122 5.984 32.5642 6.25067 33.5455 6.784C34.5482 7.31733 35.3482 7.98933 35.9455 8.8V6.272H40.4575V24H35.9455V21.408C35.3695 22.24 34.5695 22.9333 33.5455 23.488C32.5428 24.0213 31.3802 24.288 30.0575 24.288C28.5642 24.288 27.1988 23.904 25.9615 23.136C24.7455 22.368 23.7748 21.2907 23.0495 19.904C22.3455 18.496 21.9935 16.8853 21.9935 15.072ZM35.9455 15.136C35.9455 14.048 35.7322 13.12 35.3055 12.352C34.8788 11.5627 34.3028 10.9653 33.5775 10.56C32.8522 10.1333 32.0735 9.92 31.2415 9.92C30.4095 9.92 29.6415 10.1227 28.9375 10.528C28.2335 10.9333 27.6575 11.5307 27.2095 12.32C26.7828 13.088 26.5695 14.0053 26.5695 15.072C26.5695 16.1387 26.7828 17.0773 27.2095 17.888C27.6575 18.6773 28.2335 19.2853 28.9375 19.712C29.6628 20.1387 30.4308 20.352 31.2415 20.352C32.0735 20.352 32.8522 20.1493 33.5775 19.744C34.3028 19.3173 34.8788 18.72 35.3055 17.952C35.7322 17.1627 35.9455 16.224 35.9455 15.136ZM43.681 15.136C43.681 13.3013 44.0543 11.7013 44.801 10.336C45.5477 8.94933 46.5823 7.88267 47.905 7.136C49.2277 6.368 50.7423 5.984 52.449 5.984C54.6463 5.984 56.4597 6.53867 57.889 7.648C59.3397 8.736 60.3103 10.272 60.801 12.256H55.969C55.713 11.488 55.2757 10.8907 54.657 10.464C54.0597 10.016 53.313 9.792 52.417 9.792C51.137 9.792 50.1237 10.2613 49.377 11.2C48.6303 12.1173 48.257 13.4293 48.257 15.136C48.257 16.8213 48.6303 18.1333 49.377 19.072C50.1237 19.9893 51.137 20.448 52.417 20.448C54.2303 20.448 55.4143 19.6373 55.969 18.016H60.801C60.3103 19.936 59.3397 21.4613 57.889 22.592C56.4383 23.7227 54.625 24.288 52.449 24.288C50.7423 24.288 49.2277 23.9147 47.905 23.168C46.5823 22.4 45.5477 21.3333 44.801 19.968C44.0543 18.5813 43.681 16.9707 43.681 15.136ZM74.579 24L68.563 16.448V24H64.083V0.32H68.563V13.792L74.515 6.272H80.339L72.531 15.168L80.403 24H74.579ZM89.5545 24.288C88.1038 24.288 86.8025 24.032 85.6505 23.52C84.4985 22.9867 83.5812 22.272 82.8985 21.376C82.2372 20.48 81.8745 19.488 81.8105 18.4H86.3225C86.4078 19.0827 86.7385 19.648 87.3145 20.096C87.9118 20.544 88.6478 20.768 89.5225 20.768C90.3758 20.768 91.0372 20.5973 91.5065 20.256C91.9972 19.9147 92.2425 19.4773 92.2425 18.944C92.2425 18.368 91.9438 17.9413 91.3465 17.664C90.7705 17.3653 89.8425 17.0453 88.5625 16.704C87.2398 16.384 86.1518 16.0533 85.2985 15.712C84.4665 15.3707 83.7412 14.848 83.1225 14.144C82.5252 13.44 82.2265 12.4907 82.2265 11.296C82.2265 10.3147 82.5038 9.41867 83.0585 8.608C83.6345 7.79733 84.4452 7.15733 85.4905 6.688C86.5572 6.21867 87.8052 5.984 89.2345 5.984C91.3465 5.984 93.0318 6.51733 94.2905 7.584C95.5492 8.62933 96.2425 10.048 96.3705 11.84H92.0825C92.0185 11.136 91.7198 10.5813 91.1865 10.176C90.6745 9.74933 89.9812 9.536 89.1065 9.536C88.2958 9.536 87.6665 9.68533 87.2185 9.984C86.7918 10.2827 86.5785 10.6987 86.5785 11.232C86.5785 11.8293 86.8772 12.288 87.4745 12.608C88.0718 12.9067 88.9998 13.216 90.2585 13.536C91.5385 13.856 92.5945 14.1867 93.4265 14.528C94.2585 14.8693 94.9732 15.4027 95.5705 16.128C96.1892 16.832 96.5092 17.7707 96.5305 18.944C96.5305 19.968 96.2425 20.8853 95.6665 21.696C95.1118 22.5067 94.3012 23.1467 93.2345 23.616C92.1892 24.064 90.9625 24.288 89.5545 24.288Z" fill="#EC4D36"/>
</svg>
